<?xml version="1.0" standalone="no"?>
<!DOCTYPE svg PUBLIC "-//W3C//DTD SVG 20010904//EN"
 "http://www.w3.org/TR/2001/REC-SVG-20010904/DTD/svg10.dtd">
<svg version="1.0" xmlns="http://www.w3.org/2000/svg"
 width="512.000000pt" height="512.000000pt" viewBox="0 0 512.000000 512.000000"
 preserveAspectRatio="xMidYMid meet">
<metadata>
Created by potrace 1.14, written by Peter Selinger 2001-2017
</metadata>
<g transform="translate(0.000000,512.000000) scale(0.100000,-0.100000)"
fill="#000000" stroke="none">
<path d="M1740 4240 c-25 -10 -40 -19 -33 -19 7 -1 10 -8 6 -16 -5 -14 0 -14
36 1 50 20 152 14 200 -10 16 -9 38 -16 49 -16 10 0 24 -6 31 -12 11 -11 12
-9 6 11 -6 21 -5 22 8 10 8 -8 13 -19 10 -25 -2 -6 3 -11 11 -11 8 0 13 4 10
9 -9 14 8 9 53 -17 23 -14 43 -30 43 -36 0 -5 11 -14 25 -19 22 -8 30 -20 26
-42 0 -4 5 -5 12 -3 6 3 23 -11 37 -30 14 -19 31 -35 38 -35 6 0 12 -4 12 -8
0 -5 9 -19 20 -32 11 -12 17 -27 13 -33 -4 -7 -8 -6 -11 2 -12 35 -72 84 -72
59 0 -7 14 -22 30 -33 18 -12 30 -29 30 -41 0 -12 18 -41 39 -65 22 -23 37
-47 34 -51 -2 -5 -11 -1 -19 9 -26 35 -14 0 21 -56 37 -62 52 -118 53 -196 l1
-50 -21 45 c-11 25 -22 61 -25 80 -7 65 -22 105 -64 174 -22 37 -38 74 -35 81
5 13 -10 32 -29 35 -5 1 -9 7 -7 12 4 15 -19 39 -31 31 -5 -3 -7 -1 -4 4 4 6
0 13 -8 16 -10 4 -12 1 -8 -11 6 -15 4 -15 -10 -4 -9 8 -24 12 -34 10 -14 -2
-9 -11 23 -41 49 -45 106 -122 97 -131 -3 -3 -1 -6 5 -6 18 0 44 -60 38 -86
-4 -14 0 -37 9 -53 22 -43 21 -80 -3 -135 -12 -27 -22 -53 -22 -59 0 -19 48
34 55 60 3 13 11 23 17 21 11 -4 65 -183 73 -243 2 -16 10 -64 16 -106 18
-117 -9 -230 -81 -334 -30 -43 -33 -45 -80 -45 -28 0 -50 4 -50 9 0 5 -22 33
-50 62 -27 29 -50 49 -50 45 0 -5 -9 -1 -21 10 -16 15 -24 16 -39 7 -14 -10
-19 -9 -24 3 -7 18 -51 35 -70 28 -30 -11 -26 -38 13 -98 22 -33 38 -62 36
-65 -3 -2 -34 23 -69 57 -62 60 -97 75 -112 50 -13 -20 -11 -151 2 -185 12
-30 11 -34 -6 -43 -17 -9 -21 -6 -27 17 -5 16 -8 87 -7 158 0 103 4 136 17
160 9 17 17 38 17 48 0 13 5 17 19 12 13 -4 24 3 37 22 9 16 22 33 28 40 39
44 92 118 111 155 10 20 24 36 29 35 6 -1 11 5 11 14 0 9 6 23 13 31 6 8 9 18
5 21 -3 4 0 7 8 7 12 0 12 2 0 9 -12 8 -13 18 -3 61 13 57 14 122 2 160 -10
32 -12 27 -15 -45 -4 -104 -70 -305 -95 -290 -5 3 -7 0 -5 -8 3 -7 -3 -21 -14
-31 -11 -10 -18 -23 -15 -27 3 -5 0 -9 -5 -9 -14 0 -14 6 4 40 9 17 11 30 6
30 -16 0 -33 -39 -34 -76 -1 -19 -4 -29 -8 -22 -10 16 -23 -16 -16 -36 4 -10
1 -13 -9 -9 -9 3 -14 -2 -14 -15 0 -12 -4 -23 -9 -26 -12 -8 -5 98 8 122 5 9
9 20 9 25 0 4 3 20 6 35 19 88 15 132 -10 132 -17 0 -16 -3 -5 38 7 24 7 32
-3 32 -9 0 -13 13 -12 40 0 22 4 40 8 40 5 0 8 13 8 28 0 16 3 32 6 35 4 4 8
21 9 39 2 18 8 34 14 36 6 2 11 12 11 23 0 10 5 19 10 19 6 0 10 -4 10 -10 0
-5 8 -10 19 -10 10 0 21 -9 24 -20 3 -11 1 -20 -4 -20 -5 0 -9 7 -9 15 0 8 -7
15 -15 15 -9 0 -15 -9 -15 -25 0 -16 6 -25 15 -25 8 0 15 -4 15 -10 0 -5 -5
-10 -10 -10 -6 0 -3 -11 7 -24 23 -31 31 -17 28 50 -2 63 7 70 22 17 10 -37
10 -37 8 17 -2 30 -6 64 -11 74 -7 19 -8 19 -15 0 -6 -16 -8 -15 -8 9 -1 22
-5 27 -28 27 l-26 0 21 -19 c22 -18 31 -61 13 -61 -5 0 -16 11 -25 24 -12 18
-12 26 -3 29 7 3 4 6 -6 6 -25 1 -51 28 -34 34 9 4 8 8 -3 16 -13 10 -13 12 0
21 11 7 5 9 -20 5 -29 -5 -31 -4 -12 4 12 6 22 17 22 26 0 8 5 15 10 15 6 0
10 -5 10 -11 0 -5 5 -7 11 -3 8 4 7 9 -2 15 -12 8 -12 11 1 18 12 9 12 11 -3
17 -9 3 -17 14 -17 24 0 33 -20 33 -26 1 -4 -17 -10 -31 -15 -31 -5 0 -6 7 -3
15 9 22 -5 67 -17 59 -6 -3 -16 2 -23 11 -9 13 -20 16 -38 12 -28 -7 -43 -43
-27 -63 6 -7 7 -23 4 -36 -4 -13 -4 -20 0 -16 4 4 17 3 27 -3 13 -7 23 -8 30
-1 7 7 16 5 29 -6 17 -15 17 -17 2 -34 -9 -10 -14 -20 -12 -21 2 -2 15 -12 29
-21 l25 -18 -27 5 c-34 5 -37 -10 -5 -23 21 -8 21 -9 -5 -9 -19 -1 -26 -5 -22
-15 7 -18 -21 -28 -54 -19 l-27 6 20 -23 c17 -20 18 -23 3 -17 -12 4 -18 1
-18 -9 0 -9 5 -12 13 -8 8 5 7 2 -2 -9 -8 -10 -11 -20 -7 -24 3 -3 6 -1 6 7 0
10 3 10 15 0 9 -7 19 -9 23 -5 4 4 1 10 -5 12 -14 5 -18 24 -5 22 19 -3 25 2
12 11 -13 8 -12 10 3 10 19 0 23 -15 7 -25 -6 -4 -8 -11 -5 -16 4 -5 -9 -24
-28 -42 -28 -26 -38 -48 -56 -123 -18 -73 -27 -94 -45 -102 -22 -10 -32 -42
-13 -42 5 0 6 7 3 16 -5 13 -3 14 6 6 9 -7 12 -31 10 -73 -2 -34 -7 -57 -10
-52 -4 6 -17 14 -30 17 -18 6 -21 11 -12 21 6 8 10 24 8 37 l-3 23 -20 -24
c-29 -34 -69 -71 -76 -71 -4 0 6 14 22 31 16 17 29 37 29 44 0 17 35 47 45 38
4 -5 5 -3 2 4 -4 6 4 20 17 31 14 10 28 32 32 48 4 16 11 34 16 41 5 7 5 14
-2 18 -5 3 -10 0 -10 -7 0 -8 -15 -31 -34 -51 -18 -20 -31 -38 -29 -40 2 -2
-3 -10 -12 -17 -20 -16 -20 -2 0 64 19 61 19 70 1 63 -8 -3 -22 3 -31 13 -15
17 -15 19 4 25 12 3 21 11 21 17 0 5 -7 8 -15 5 -19 -8 -31 13 -14 24 9 6 4 7
-16 3 -38 -9 -41 -12 -27 -26 22 -22 13 -35 -19 -30 -35 5 -49 29 -28 46 8 6
15 25 17 41 2 17 14 40 28 53 13 13 24 27 24 32 0 6 5 10 10 10 6 0 10 -7 10
-15 0 -8 -4 -15 -8 -15 -4 0 -15 -20 -24 -43 l-16 -44 25 5 c28 5 80 49 70 59
-4 3 9 25 28 49 38 46 42 56 23 53 -31 -4 -48 2 -48 16 0 10 10 15 29 15 17 0
33 5 36 10 3 6 -1 10 -9 10 -9 0 -16 5 -16 10 0 6 -9 10 -20 10 -11 0 -19 -4
-17 -8 1 -5 -16 -26 -37 -48 -22 -21 -55 -64 -74 -94 -20 -30 -38 -57 -42 -60
-15 -12 -51 -94 -46 -106 3 -8 2 -14 -2 -14 -12 0 -34 -59 -28 -75 3 -9 0 -15
-9 -15 -20 0 -19 -19 0 -26 8 -4 15 -11 15 -16 0 -6 -6 -6 -14 1 -8 7 -17 8
-20 3 -6 -10 -2 -39 7 -48 12 -12 8 -24 -8 -24 -16 0 -19 13 -16 75 1 21 6 42
12 46 7 4 8 12 5 18 -12 19 -23 3 -30 -44 -7 -41 -10 -45 -32 -42 -24 3 -35
22 -12 22 6 0 15 12 19 27 5 20 4 25 -7 21 -8 -3 -14 -9 -14 -14 0 -5 -7 -9
-15 -9 -13 0 -20 -18 -16 -42 0 -4 -7 -17 -17 -28 -9 -11 -17 -26 -17 -33 0
-6 -8 -13 -17 -15 -11 -2 -16 2 -14 10 38 118 52 157 68 185 19 31 16 41 -8
25 -6 -4 -17 -22 -25 -39 -8 -19 -21 -33 -31 -33 -10 0 -18 -5 -18 -11 0 -5 5
-7 10 -4 6 3 10 1 10 -5 0 -6 -7 -13 -15 -16 -15 -6 -22 -26 -7 -21 4 1 8 -3
10 -8 1 -6 -6 -11 -18 -13 -11 -2 -18 -8 -15 -13 4 -5 -3 -9 -13 -9 -11 0 -23
-7 -26 -16 -3 -8 -10 -12 -16 -9 -5 3 -10 0 -10 -8 0 -8 6 -15 13 -14 35 1 51
-4 40 -11 -10 -7 -10 -12 1 -27 12 -16 16 -17 29 -6 9 7 22 9 28 5 9 -5 7 -11
-7 -22 -13 -10 -15 -16 -6 -19 8 -3 5 -10 -10 -22 l-22 -18 23 -12 c17 -10 26
-10 37 0 17 14 19 33 2 23 -9 -5 -9 -2 1 9 7 9 20 17 27 17 17 0 18 17 2 23
-8 3 -6 6 4 6 22 1 13 28 -10 34 -12 3 -10 5 6 6 21 1 33 21 12 21 -5 0 -10
10 -9 23 0 12 3 16 6 10 7 -18 23 -16 23 2 0 8 7 15 15 15 18 0 18 -1 5 -58
-12 -51 -4 -74 17 -47 19 26 46 29 40 4 -3 -13 0 -19 10 -19 12 0 14 -7 9 -32
-3 -18 -10 -34 -14 -38 -4 -3 -13 -16 -20 -30 -11 -24 -12 -23 -6 10 5 34 5
34 -8 10 -8 -14 -15 -47 -16 -75 -4 -64 -20 -125 -33 -125 -6 0 -9 -7 -5 -15
3 -8 1 -15 -4 -15 -6 0 -10 -5 -10 -10 0 -6 -12 -29 -26 -52 -14 -23 -27 -46
-29 -52 -1 -6 -7 -22 -12 -36 -6 -14 -9 -30 -6 -36 2 -5 -8 -16 -22 -24 -14
-7 -25 -22 -25 -32 0 -10 -4 -18 -10 -18 -5 0 -10 -11 -10 -25 0 -14 -5 -25
-10 -25 -12 0 -1 53 12 58 11 5 10 42 -1 42 -5 0 -12 -7 -14 -15 -4 -11 -4
-10 -3 2 1 11 9 18 21 18 15 0 20 7 22 30 8 135 13 185 22 219 10 41 6 61 -9
51 -5 -3 -6 -13 -3 -21 4 -10 1 -14 -8 -12 -15 3 -19 -2 -19 -23 0 -5 5 -7 10
-4 6 3 10 1 10 -4 0 -6 -6 -11 -14 -11 -10 0 -14 -10 -12 -34 3 -35 -12 -78
-15 -46 -3 26 -20 -112 -21 -172 -1 -32 -4 -58 -7 -58 -3 0 -6 -11 -6 -25 0
-16 5 -23 12 -21 16 6 27 -10 13 -19 -6 -4 -7 -11 -4 -17 4 -7 2 -8 -4 -4 -18
11 -37 -4 -21 -16 11 -7 11 -11 2 -15 -7 -2 -13 -9 -13 -14 0 -6 5 -7 10 -4 7
4 9 -4 6 -22 -3 -15 -8 -54 -12 -86 -3 -31 -10 -60 -15 -63 -5 -3 -7 -10 -3
-15 3 -6 3 -27 -1 -47 -6 -31 -9 -34 -15 -17 -4 12 -3 23 4 27 6 5 7 8 1 8 -6
0 -11 24 -11 53 -1 28 -2 70 -2 92 -1 22 -1 49 -1 60 1 11 1 45 0 75 -2 59 2
92 13 128 4 12 3 22 -2 22 -5 0 -22 -35 -37 -77 -15 -43 -32 -82 -37 -88 -8
-7 -9 -6 -3 3 4 8 0 21 -10 32 -12 14 -15 27 -9 56 3 22 9 44 13 49 13 23 11
57 -6 73 -16 16 -17 16 -10 -1 4 -10 1 -30 -6 -45 -26 -51 -55 -288 -35 -276
8 5 9 1 4 -12 -17 -43 -19 -74 -5 -74 11 0 11 -2 -1 -9 -8 -6 -17 -8 -21 -5
-4 2 -10 0 -14 -6 -3 -5 1 -10 9 -10 10 0 16 -9 16 -25 0 -39 -37 -34 -38 5 0
16 3 32 7 34 4 3 6 21 5 41 -2 21 1 33 6 30 6 -4 10 -2 10 4 0 15 -20 25 -30
15 -5 -5 -11 -38 -15 -74 -3 -36 -10 -92 -14 -125 -5 -33 -9 -94 -10 -135 -2
-63 -9 -109 -25 -165 -1 -5 -11 -28 -21 -50 -10 -22 -19 -44 -19 -50 -1 -5
-10 -9 -19 -8 -10 0 -16 -1 -13 -4 9 -10 -22 -60 -55 -87 -17 -15 -33 -25 -35
-24 -6 7 21 74 30 75 10 2 61 92 72 126 3 12 15 42 26 67 21 46 22 56 15 132
-3 29 1 58 9 74 8 15 17 44 20 65 4 22 11 36 17 32 6 -4 6 0 -1 12 -6 11 -6
29 -1 44 13 40 38 248 32 270 -3 12 -1 21 3 21 5 0 7 25 6 55 -3 41 0 55 10
55 10 0 10 2 1 8 -16 10 -28 232 -13 232 5 0 10 8 10 18 0 14 -2 15 -10 2 -5
-8 -10 -11 -10 -5 0 6 -3 6 -9 0 -12 -13 -25 -205 -14 -205 4 0 8 -13 8 -30 0
-16 -3 -30 -6 -30 -3 0 -6 -36 -7 -80 -1 -44 -6 -89 -12 -100 -5 -10 -10 -32
-10 -49 0 -16 -5 -33 -10 -36 -6 -3 -10 -14 -10 -23 0 -10 -11 -34 -25 -54
-14 -20 -25 -42 -25 -47 0 -14 -65 -149 -88 -184 -10 -15 -22 -24 -25 -20 -4
3 -7 -1 -7 -9 0 -9 -6 -21 -14 -27 -8 -7 -20 -34 -27 -62 -7 -27 -17 -49 -21
-49 -5 0 -6 -4 -3 -10 3 -5 0 -19 -8 -30 -13 -19 -15 -19 -21 -4 -4 9 -9 14
-13 11 -3 -4 3 -19 13 -34 20 -30 21 -33 23 -64 0 -11 5 -17 11 -14 6 3 10 -3
10 -14 0 -15 6 -21 22 -21 12 0 18 -3 15 -7 -4 -3 -2 -12 3 -18 13 -16 2 -45
-16 -45 -8 0 -15 10 -15 23 -1 21 -2 21 -8 -3 -7 -25 -33 -82 -51 -110 -5 -8
-12 -33 -15 -55 -6 -32 -8 -36 -17 -22 -5 10 -6 32 -3 49 4 17 3 33 -3 37 -6
4 2 31 20 71 34 75 34 130 -1 199 -12 22 -21 42 -21 45 0 2 14 3 30 1 28 -4
29 -2 19 17 -6 12 -9 50 -7 89 3 56 8 71 27 88 33 29 78 111 85 154 1 11 26
43 54 72 49 50 66 75 40 59 -8 -5 -9 -2 -5 10 4 10 7 23 8 29 0 7 5 3 10 -8 8
-17 8 -16 4 7 -3 15 2 39 12 57 14 23 16 36 8 58 -6 16 -8 48 -4 73 17 106 22
186 24 365 l1 190 42 125 c76 227 152 357 304 525 103 113 154 154 264 211 91
46 100 49 174 49 43 0 76 3 74 7 -2 3 2 9 8 11 27 11 -14 24 -80 26 -83 2
-166 -24 -265 -82 -54 -33 -71 -48 -69 -63 2 -14 0 -15 -6 -6 -7 10 -22 0 -60
-40 -29 -30 -66 -74 -84 -98 -18 -25 -35 -47 -39 -50 -10 -8 -113 -170 -153
-242 -72 -129 -136 -373 -172 -653 -13 -97 -58 -283 -83 -337 -23 -51 -96
-157 -161 -235 -59 -71 -95 -347 -55 -424 9 -17 19 -29 22 -26 2 3 0 14 -6 25
-6 12 -11 26 -11 33 0 7 16 -18 35 -57 41 -80 44 -123 14 -179 -73 -134 -71
-129 -54 -141 8 -6 13 -18 10 -25 -3 -9 14 -25 47 -46 43 -26 54 -29 56 -16 2
9 -2 19 -10 24 -7 5 -8 9 -2 9 6 0 9 10 7 24 -5 26 12 66 28 66 6 0 7 -5 3
-12 -5 -8 -2 -9 9 -5 19 7 22 -5 6 -34 -35 -67 -134 -375 -164 -514 -15 -67
-30 -119 -62 -212 -24 -72 -25 -91 -4 -103 13 -7 22 -7 26 0 3 5 -1 10 -9 10
-9 0 -16 4 -16 10 0 5 4 9 8 7 12 -3 72 68 72 85 0 8 6 34 14 59 8 24 26 96
41 159 14 63 34 138 44 165 11 28 27 77 36 110 9 33 21 70 26 83 5 13 7 28 4
33 -4 5 1 9 10 9 9 0 13 5 10 10 -4 6 3 42 14 80 19 61 24 69 51 75 46 10 49
28 3 19 -44 -8 -42 -4 10 25 56 31 77 28 73 -9 -3 -30 -3 -30 18 -15 31 22 76
41 118 49 21 4 43 12 50 19 8 7 20 13 28 15 23 5 74 72 82 106 3 17 11 47 16
67 9 37 0 71 -15 55 -4 -4 -8 -11 -9 -14 0 -4 -3 -14 -7 -22 -3 -8 -8 -26 -11
-40 -7 -31 -33 -66 -42 -57 -4 3 -2 19 4 34 6 15 12 42 14 58 2 17 8 36 15 43
7 7 10 19 7 27 -4 8 -2 15 4 15 6 0 13 24 18 53 l7 52 21 -61 c12 -33 31 -74
44 -91 12 -17 22 -35 22 -41 0 -5 8 -20 19 -33 29 -38 33 -88 11 -134 -11 -24
-15 -42 -9 -46 6 -3 9 -12 7 -19 -8 -34 92 -8 140 38 16 15 53 36 67 38 6 0
15 2 21 2 7 1 15 9 18 18 5 14 4 15 -9 4 -9 -7 -18 -10 -22 -6 -3 3 -1 6 5 6
15 0 72 84 72 107 0 10 18 34 41 53 32 28 100 124 105 150 0 3 3 12 6 20 3 8
11 37 17 65 14 59 19 65 34 44 7 -9 19 -14 27 -12 12 4 12 2 2 -5 -7 -5 -12
-15 -10 -23 2 -8 -3 -13 -10 -11 -8 1 -11 -2 -8 -7 4 -5 0 -12 -6 -14 -10 -4
-10 -6 0 -6 16 -1 -2 -39 -27 -58 -12 -9 -13 -15 -5 -23 9 -9 16 -6 29 12 10
12 15 16 12 7 -3 -9 1 -29 9 -43 7 -15 13 -30 13 -34 -1 -4 0 -20 1 -37 l2
-30 7 30 7 30 5 -37 c3 -20 2 -35 -2 -32 -13 8 24 -61 39 -71 7 -6 12 -15 11
-20 -5 -22 14 -65 32 -70 11 -4 17 -9 15 -13 -2 -4 2 -13 10 -20 8 -7 14 -9
14 -5 0 4 11 -8 23 -28 12 -19 41 -57 64 -83 37 -42 43 -45 56 -31 20 19 51
20 44 1 -3 -8 3 -22 13 -32 10 -11 35 -35 54 -54 20 -19 36 -38 36 -42 0 -4 5
-8 11 -8 18 0 -21 54 -62 84 -39 30 -49 46 -28 46 5 0 7 -4 4 -10 -3 -6 4 -10
16 -10 22 0 21 2 -11 35 -25 25 -42 35 -60 33 -17 -2 -28 4 -37 22 -6 13 -22
32 -35 42 l-23 17 23 -6 c12 -3 22 -9 22 -14 0 -5 10 -9 23 -9 17 0 19 -2 7
-10 -8 -5 -12 -11 -9 -14 2 -3 11 -1 19 4 12 8 9 15 -20 40 -19 16 -38 30 -41
30 -3 0 -4 12 -1 27 4 23 6 24 17 10 9 -13 11 14 9 126 -2 78 -1 150 2 160 6
19 34 24 34 6 0 -8 4 -8 12 -2 7 5 30 9 51 7 20 -2 37 1 37 5 0 5 38 6 84 4
63 -4 98 -2 135 11 27 9 59 16 70 16 27 0 51 10 51 22 0 5 -14 7 -30 4 -34 -5
-44 7 -53 66 -3 20 -12 52 -21 70 -21 48 -47 158 -39 170 3 6 1 8 -5 4 -6 -3
-13 -2 -17 4 -3 5 -2 10 3 10 6 0 1 17 -9 37 -10 21 -19 43 -19 50 0 19 -50
123 -59 123 -4 0 7 -48 26 -107 19 -60 41 -130 49 -158 7 -27 28 -97 45 -155
17 -58 32 -109 33 -114 0 -5 -15 -14 -34 -20 -19 -6 -40 -14 -46 -18 -7 -4
-38 -6 -70 -3 -33 2 -65 4 -71 5 -7 0 -12 10 -11 23 0 12 -7 59 -16 104 -10
46 -14 88 -10 94 4 7 3 9 -4 5 -13 -8 -26 29 -16 45 4 7 3 9 -3 6 -5 -3 -20
28 -32 71 -13 42 -30 87 -38 100 -8 13 -16 32 -18 42 -3 17 -1 18 18 7 30 -17
33 -22 58 -102 36 -119 50 -178 44 -192 -2 -8 0 -11 5 -8 6 3 10 -1 10 -10 0
-33 45 -165 55 -162 13 5 8 48 -14 122 -10 33 -24 80 -31 105 -23 84 -72 225
-85 246 -13 20 -11 23 26 43 49 28 154 58 194 57 28 -1 31 -5 68 -111 106
-301 138 -400 134 -417 -4 -15 1 -18 29 -18 19 0 34 -2 34 -5 0 -3 12 -63 26
-133 35 -174 52 -282 43 -282 -3 0 -10 10 -14 23 -3 12 -8 17 -11 12 -2 -6 12
-55 32 -110 75 -208 144 -441 144 -483 0 -23 -85 -42 -153 -35 -26 3 -52 1
-59 -4 -7 -5 -32 -15 -55 -23 -24 -7 -43 -18 -43 -25 0 -13 -141 -107 -167
-111 -10 -2 -27 -4 -38 -6 -11 -2 -24 -9 -28 -16 -5 -7 -12 -10 -18 -7 -5 4
-12 0 -15 -8 -3 -8 -14 -12 -28 -10 -17 4 -25 -1 -29 -16 -7 -28 17 -31 78 -8
28 10 66 23 85 29 19 5 43 17 52 25 9 8 22 12 27 8 6 -3 14 1 17 9 3 9 14 16
23 16 23 1 56 28 56 48 0 9 9 18 20 21 17 3 18 1 6 -13 -14 -17 -5 -21 18 -7
7 5 11 13 7 19 -3 6 -2 13 4 17 5 3 10 -1 10 -9 0 -20 4 -20 42 0 24 12 36 13
54 5 13 -6 24 -7 24 -2 0 5 9 7 20 4 16 -4 19 -2 14 11 -5 12 1 15 30 14 27
-1 35 -5 31 -15 -3 -8 -5 -27 -5 -41 0 -21 -3 -24 -10 -12 -8 12 -10 12 -16
-3 -3 -9 -11 -14 -17 -10 -5 3 -7 1 -3 -5 3 -6 1 -14 -5 -17 -6 -4 -8 -19 -5
-34 5 -17 4 -22 -3 -12 -7 11 -11 10 -20 -8 -7 -12 -11 -27 -10 -34 3 -26 -2
-35 -46 -81 -25 -27 -45 -53 -45 -60 0 -37 -341 -137 -360 -106 -4 7 -43 14
-86 17 -56 4 -82 10 -90 21 -15 20 -7 43 12 35 8 -3 14 0 14 6 0 6 -5 10 -11
8 -6 -1 -14 4 -16 11 -3 7 0 11 5 10 6 -2 10 1 11 5 0 4 7 15 16 24 23 23 11
28 -16 6 -55 -44 -80 -73 -72 -85 5 -10 8 -8 11 5 4 20 18 23 20 5 4 -40 9
-54 22 -60 11 -5 9 -7 -7 -7 -14 -1 -23 5 -23 14 0 8 -4 15 -10 15 -5 0 -10
-5 -10 -12 0 -7 -5 -6 -12 3 -7 9 -35 24 -61 33 -45 17 -138 79 -145 97 -2 4
-23 17 -46 29 -24 11 -85 63 -137 117 -177 181 -205 210 -247 258 -41 47 -59
55 -46 21 3 -9 10 -16 15 -16 5 0 9 -7 9 -15 0 -9 11 -26 24 -38 67 -62 86
-81 151 -152 39 -42 91 -99 116 -126 25 -27 43 -49 39 -49 -3 0 -33 18 -66 40
-32 22 -75 51 -96 65 -20 13 -39 29 -43 35 -3 5 -14 10 -23 10 -12 0 -5 -11
23 -36 22 -19 45 -38 50 -42 6 -4 33 -24 61 -45 29 -20 55 -37 59 -37 5 0 23
-11 41 -25 18 -14 37 -25 41 -25 5 0 40 -21 79 -47 98 -66 237 -121 259 -103
7 6 24 6 46 0 45 -13 119 -13 119 1 0 6 7 3 16 -5 19 -19 48 -22 38 -3 -6 10
-4 10 7 0 7 -7 18 -13 23 -13 6 0 5 4 -2 9 -8 5 12 12 55 19 37 6 69 16 71 22
2 5 7 8 12 5 4 -3 33 6 64 20 31 14 56 20 56 15 0 -6 5 -10 10 -10 6 0 10 6
10 14 0 8 7 16 15 20 8 3 15 9 14 13 -4 23 2 43 11 38 6 -3 10 -1 10 4 0 6 8
11 18 11 21 0 52 31 75 75 14 26 16 27 17 8 0 -12 -5 -25 -11 -28 -6 -4 -8
-14 -4 -22 3 -9 -2 -27 -11 -40 -8 -14 -13 -27 -10 -30 6 -7 41 62 56 115 7
23 16 42 21 42 4 0 10 7 13 16 3 8 2 13 -2 10 -5 -3 -6 8 -4 25 2 16 8 32 13
35 5 3 9 13 9 23 0 9 10 28 22 41 l22 23 -27 106 c-15 58 -29 137 -33 174 -4
37 -12 74 -20 81 -7 8 -15 26 -18 42 -3 15 -10 52 -16 81 -7 30 -9 60 -6 68 3
8 1 15 -4 17 -4 2 -9 21 -11 43 -1 22 -5 45 -8 50 -3 6 -7 21 -9 35 -1 14 -11
52 -21 85 -11 33 -27 85 -36 115 -10 32 -18 95 -20 150 -1 52 -7 106 -13 120
-7 14 -25 79 -42 145 -17 66 -37 138 -44 160 -8 22 -21 65 -31 95 -10 30 -22
59 -26 65 -13 14 -12 18 24 57 59 65 99 235 76 331 -10 44 -9 50 10 71 28 30
27 41 -14 89 -19 22 -35 44 -35 48 0 4 10 16 23 26 77 63 67 235 -24 395 -36
65 -46 80 -80 116 -8 9 -30 36 -48 60 -18 23 -37 40 -42 36 -5 -3 -9 -1 -9 4
0 25 -181 172 -211 172 -8 0 -32 8 -54 19 -107 50 -230 63 -305 31z m140 -280
c-20 -13 -33 -13 -25 0 3 6 14 10 23 10 15 0 15 -2 2 -10z m490 -76 c0 -8 -5
-12 -10 -9 -6 4 -8 11 -5 16 9 14 15 11 15 -7z m60 -42 c14 -20 34 -54 45 -74
10 -20 23 -34 28 -31 6 3 7 1 3 -6 -4 -7 -4 -20 0 -29 8 -19 8 -19 23 -82 13
-56 14 -83 2 -75 -5 3 -11 -5 -13 -17 -5 -37 -20 -22 -25 24 -2 24 -8 58 -13
77 -5 19 -7 38 -4 43 3 4 1 8 -4 8 -5 0 -9 6 -10 13 -5 65 -15 85 -63 136 -25
27 -28 51 -6 51 7 0 23 -17 37 -38z m-753 -38 c-3 -3 -12 -4 -19 -1 -8 3 -5 6
6 6 11 1 17 -2 13 -5z m283 -64 c0 -11 -4 -20 -9 -20 -5 0 -7 9 -4 20 3 11 7
20 9 20 2 0 4 -9 4 -20z m-54 -102 c-3 -19 -27 -60 -32 -55 -6 6 17 67 26 67
5 0 7 -6 6 -12z m-312 -95 c-1 -14 -10 -30 -18 -35 -9 -5 -16 -20 -16 -33 0
-14 -4 -25 -9 -25 -6 0 -6 11 -1 28 26 84 50 119 44 65z m50 8 c8 -13 -4 -42
-15 -35 -12 7 -12 44 0 44 6 0 12 -4 15 -9z m231 -28 c-4 -37 5 -55 22 -49 11
5 14 -2 12 -32 -2 -24 1 -36 9 -35 6 2 9 -4 5 -13 -4 -11 -8 -12 -13 -4 -12
20 -19 -15 -16 -79 2 -33 -1 -58 -6 -55 -4 3 -6 10 -3 15 4 5 1 9 -5 9 -8 0
-9 -7 -5 -17 15 -39 13 -63 -7 -63 -11 0 -17 -4 -14 -9 3 -4 -3 -16 -14 -26
-24 -21 -26 -37 -5 -29 8 4 15 2 15 -3 0 -12 -48 -15 -55 -3 -3 6 -2 10 3 10
12 0 22 52 28 139 9 136 33 283 45 275 4 -2 6 -16 4 -31z m-72 -28 c-3 -9 -8
-14 -10 -11 -3 3 -2 9 2 15 9 16 15 13 8 -4z m-172 -18 c-10 -9 -11 -8 -5 6 3
10 9 15 12 12 3 -3 0 -11 -7 -18z m-41 9 c0 -3 -4 -8 -10 -11 -5 -3 -10 -1
-10 4 0 6 5 11 10 11 6 0 10 -2 10 -4z m210 -66 c-6 -4 -10 -11 -9 -16 1 -5
-1 -17 -6 -28 -6 -13 -3 -21 9 -28 16 -9 16 -11 -1 -23 -10 -7 -15 -17 -10
-21 4 -4 7 -2 7 4 0 7 4 12 9 12 4 0 6 -12 4 -27 -3 -16 -5 -36 -6 -45 -1 -9
-5 -14 -9 -12 -4 3 -9 -3 -9 -13 -1 -10 -5 9 -10 42 -10 66 -4 134 13 179 12
29 12 29 20 6 6 -15 5 -26 -2 -30z m-257 -79 c3 -63 1 -71 -15 -71 -10 0 -19
-4 -19 -10 -1 -5 -3 -14 -4 -20 -1 -5 -3 -20 -4 -32 -2 -22 -3 -22 -10 -3 -9
22 4 65 22 77 9 6 9 8 0 8 -21 0 -16 63 7 83 12 10 17 23 13 34 -3 10 -3 15 1
12 4 -4 8 -38 9 -78z m-323 29 c0 -5 -4 -10 -10 -10 -5 0 -10 5 -10 10 0 6 5
10 10 10 6 0 10 -4 10 -10z m1306 -77 c7 -26 -1 -42 -15 -27 -5 5 -11 21 -15
36 -5 22 -3 26 9 22 8 -4 18 -17 21 -31z m-1055 -68 c-1 -26 2 -45 8 -45 5 0
10 -17 11 -37 2 -66 4 -82 11 -77 4 2 9 -5 12 -16 3 -14 -1 -24 -15 -31 -18
-10 -20 -9 -14 6 5 14 4 16 -7 7 -17 -14 -27 -6 -28 22 -1 13 -4 8 -9 -12 -4
-18 -6 -42 -3 -52 5 -20 -17 -80 -29 -80 -5 0 -8 -13 -8 -29 0 -21 -5 -28 -17
-27 -10 0 -17 -5 -15 -12 1 -7 -7 -30 -17 -50 -11 -21 -28 -74 -39 -118 -11
-44 -26 -96 -35 -115 -8 -19 -18 -47 -21 -62 -4 -15 -11 -25 -16 -22 -6 3 -10
-3 -10 -14 0 -12 5 -21 12 -21 7 0 5 -5 -5 -12 -9 -7 -17 -26 -19 -43 -2 -16
-9 -39 -15 -50 -17 -33 -15 -95 4 -95 12 0 13 -3 3 -15 -8 -10 -10 -28 -5 -52
8 -44 45 -136 57 -141 5 -2 6 -7 3 -12 -3 -5 -1 -20 5 -34 6 -16 6 -27 0 -31
-6 -4 -10 1 -10 10 0 9 -5 13 -11 9 -8 -4 -9 1 -4 16 6 18 4 22 -8 17 -12 -4
-14 -2 -10 11 6 14 4 15 -9 4 -13 -11 -18 -7 -33 25 -10 21 -19 50 -20 65 -5
90 -3 84 -20 62 -13 -17 -14 -11 -9 61 3 44 5 93 5 108 0 15 3 26 7 23 5 -3 8
7 8 22 1 62 5 86 12 76 4 -6 15 -14 26 -17 16 -6 18 -3 14 33 -3 30 0 39 9 36
7 -3 13 -4 13 -2 0 3 3 11 6 20 4 11 0 16 -12 17 -16 1 -17 2 -2 6 9 2 17 12
17 21 -1 26 7 67 13 78 4 5 9 32 12 58 3 27 11 54 16 61 6 7 10 17 9 21 -1 5
3 22 9 37 7 16 12 31 12 35 0 4 11 28 24 54 13 26 30 70 37 98 7 27 16 50 20
50 4 0 5 9 2 21 -6 20 25 99 39 99 4 0 9 -12 11 -27 3 -20 4 -17 6 13 1 53 12
106 19 99 3 -3 5 -26 3 -50z m267 -10 c6 -13 14 -39 17 -59 6 -28 4 -36 -8
-36 -16 0 -27 20 -27 52 0 11 -5 18 -12 15 -7 -2 -12 -12 -12 -21 1 -9 -4 -16
-11 -16 -18 0 -28 49 -14 66 9 11 8 14 -3 14 -8 0 -19 -10 -24 -22 -12 -28 -3
-83 13 -83 6 0 15 -3 19 -7 4 -5 25 -8 46 -8 32 0 40 -4 48 -26 13 -32 12 -37
0 -29 -5 3 -10 1 -10 -4 0 -6 9 -11 20 -11 26 0 25 -1 -9 -74 -44 -95 -55
-120 -52 -129 1 -5 -3 -6 -9 -2 -6 3 -7 12 -3 18 4 7 6 22 4 35 -1 13 3 29 9
37 6 8 9 18 6 24 -3 5 -2 11 3 13 5 1 2 10 -7 18 -14 13 -15 12 -9 -3 3 -9 2
-19 -3 -22 -5 -3 -6 -13 -3 -22 5 -12 3 -14 -7 -8 -9 5 -11 4 -6 -4 4 -6 0
-25 -8 -43 -9 -17 -16 -41 -16 -53 0 -12 -10 -35 -21 -50 -12 -15 -24 -43 -26
-63 -2 -21 -7 -62 -11 -92 -7 -56 -6 -158 3 -220 3 -19 5 -46 4 -60 -2 -14 -3
-42 -3 -62 0 -54 -8 -38 -28 55 -29 140 -21 303 21 433 51 154 100 248 126
237 17 -6 20 14 5 37 -6 10 -10 11 -10 3 0 -16 -53 -17 -80 -3 -28 15 -80 95
-80 122 0 41 34 92 71 104 28 10 37 9 60 -8 15 -11 31 -30 37 -43z m-200 -42
c-1 -10 2 -35 6 -55 4 -25 3 -38 -4 -38 -5 0 -11 6 -11 13 -1 6 -3 26 -5 42
-4 30 1 55 10 55 3 0 4 -8 4 -17z m335 -111 c-3 -12 -10 -22 -15 -22 -5 0 -6
-4 -3 -10 3 -5 1 -10 -4 -10 -6 0 -11 -5 -11 -12 0 -14 -49 -118 -56 -118 -11
0 47 136 80 188 11 19 16 10 9 -16z m-239 -49 c20 -3 36 -7 36 -9 0 -2 -9 -20
-19 -41 -36 -70 -101 -224 -101 -239 0 -8 -4 -12 -10 -9 -6 4 -10 -26 -11 -82
-1 -83 -14 -242 -17 -215 -2 14 -22 17 -22 3 0 -5 6 -16 14 -24 12 -12 13 -26
4 -83 -6 -38 -11 -105 -12 -149 -2 -83 -36 -183 -57 -170 -5 4 -1 18 11 35 13
18 16 31 10 35 -7 4 -7 13 1 26 11 22 12 59 6 250 -2 70 -8 132 -12 139 -4 7
-2 16 6 20 10 7 10 11 -1 24 -11 14 -10 16 5 10 15 -6 16 -4 5 16 -9 18 -9 24
0 30 8 5 9 10 2 14 -16 10 1 146 19 146 4 0 8 8 8 18 -1 19 24 92 53 163 11
25 19 61 18 80 -3 50 -1 56 14 36 8 -10 30 -21 50 -24z m-857 -25 c-3 -7 -5
-2 -5 12 0 14 2 19 5 13 2 -7 2 -19 0 -25z m756 -13 c-16 -34 -33 -46 -33 -25
0 15 31 60 41 60 5 0 1 -16 -8 -35z m-759 -98 c-1 -51 -4 -101 -7 -112 -4 -11
-9 -44 -12 -73 -7 -73 -22 -98 -111 -178 l-78 -69 41 55 c66 91 112 193 129
285 3 22 8 47 9 55 2 9 6 41 10 73 4 31 10 57 14 57 3 0 6 -42 5 -93z m1322
21 c48 -51 84 -97 84 -109 0 -19 -41 -7 -56 16 -9 14 -20 22 -25 19 -5 -3 -9
4 -9 15 0 11 -6 24 -13 28 -15 9 -47 54 -47 65 0 20 29 4 66 -34z m109 -48
c48 -49 55 -60 38 -60 -12 0 -32 15 -49 38 -15 20 -30 39 -33 42 -17 15 -32
40 -24 40 5 0 35 -27 68 -60z m-198 -26 c52 -46 78 -62 83 -54 5 8 10 8 14 2
8 -13 -56 -51 -98 -59 -17 -3 -39 -10 -48 -15 -22 -11 -44 22 -51 76 l-5 39
40 -46 c38 -46 58 -58 58 -37 0 11 -39 70 -52 80 -14 11 -38 80 -28 80 6 0 45
-30 87 -66z m-191 13 c-6 -69 26 -213 55 -253 14 -18 21 -85 14 -123 l-7 -36
-13 35 c-7 19 -21 55 -32 80 -32 71 -36 89 -38 195 -2 89 5 145 19 145 3 0 4
-19 2 -43z m-60 -21 c-11 -26 -12 -36 -3 -36 8 0 7 -3 -2 -9 -9 -6 -11 -15 -6
-27 4 -11 9 -30 11 -44 11 -85 16 -105 39 -153 13 -30 27 -69 30 -88 3 -19 2
-27 -1 -19 -4 8 -20 34 -35 57 -16 23 -29 48 -29 57 0 8 -5 18 -11 22 -8 4 -8
9 0 17 15 15 14 27 -3 21 -22 -8 -22 163 0 210 22 46 30 40 10 -8z m-59 -88
c-2 -104 5 -198 16 -198 5 0 5 6 1 13 -4 6 -3 8 1 4 5 -4 10 -13 11 -20 2 -7
5 -23 8 -37 16 -69 18 -94 12 -135 -7 -45 -30 -62 -42 -30 -4 8 -12 15 -19 15
-9 0 -12 8 -10 21 3 12 4 45 4 73 0 28 0 98 -1 155 0 63 -4 98 -9 90 -6 -10
-9 -2 -9 23 0 20 5 40 10 43 6 3 10 19 10 36 0 16 4 29 10 29 5 0 9 -34 7 -82z
m696 25 c17 -10 56 -113 80 -213 14 -58 29 -118 33 -135 4 -16 9 -37 10 -45 1
-8 5 -36 9 -61 5 -32 3 -49 -5 -54 -20 -12 -31 9 -36 70 -2 31 -10 72 -18 89
-7 17 -21 56 -31 86 -10 30 -28 79 -41 107 -13 29 -29 73 -35 98 -6 25 -15 48
-20 51 -5 3 -9 10 -9 15 0 9 43 3 63 -8z m-1004 -48 c-18 -49 -44 -71 -27 -24
6 19 15 39 20 46 5 7 6 18 2 25 -5 10 -4 10 6 1 9 -9 9 -18 -1 -48z m36 -15
c-23 -45 -28 -32 -7 18 9 23 18 35 20 27 2 -7 -4 -28 -13 -45z m-198 18 c-3
-8 -6 -5 -6 6 -1 11 2 17 5 13 3 -3 4 -12 1 -19z m-17 -55 c-11 -17 -11 -17
-6 0 3 10 6 24 7 30 0 9 2 9 5 0 3 -7 0 -20 -6 -30z m440 -24 c0 -22 -4 -38
-8 -35 -8 5 -4 76 4 76 2 0 4 -18 4 -41z m318 20 c-2 -4 4 -15 13 -25 8 -11
21 -39 28 -64 7 -25 17 -56 22 -70 16 -47 69 -261 69 -281 0 -14 -7 -19 -25
-19 -22 0 -25 4 -25 35 0 31 -12 80 -75 318 -7 26 -8 50 -4 53 5 3 9 11 9 17
0 9 -2 9 -8 0 -5 -8 -12 -2 -19 18 -10 25 -9 30 3 27 8 -2 14 -6 12 -9z
m-1181 -21 c-3 -8 -6 -5 -6 6 -1 11 2 17 5 13 3 -3 4 -12 1 -19z m1141 5 c-1
-10 1 -23 5 -29 11 -19 38 -155 31 -165 -3 -5 -1 -9 5 -9 5 0 12 -17 16 -37 3
-21 16 -75 29 -120 l24 -83 -24 0 c-13 0 -24 5 -24 11 0 6 -6 9 -14 6 -8 -3
-16 2 -19 13 -3 10 1 21 9 24 17 7 12 48 -27 239 -25 121 -28 167 -12 167 2 0
3 -8 1 -17z m-921 -67 c-1 -30 -4 -53 -8 -50 -10 6 -9 104 1 104 4 0 8 -24 7
-54z m190 32 c-3 -8 -6 -5 -6 6 -1 11 2 17 5 13 3 -3 4 -12 1 -19z m199 -53
c-8 -31 -17 -60 -21 -63 -10 -11 7 102 18 116 17 22 19 6 3 -53z m-341 14 c-4
-11 -1 -27 7 -36 7 -9 8 -14 2 -10 -16 9 -21 -9 -19 -70 1 -49 -7 -69 -17 -40
-11 32 10 190 23 181 6 -3 7 -15 4 -25z m595 17 c0 -3 -4 -8 -10 -11 -5 -3
-10 -1 -10 4 0 6 5 11 10 11 6 0 10 -2 10 -4z m-937 -63 c-23 -36 -39 -53 -45
-48 -3 3 -5 -2 -5 -10 0 -13 2 -13 17 0 24 22 31 18 18 -10 -6 -14 -15 -25
-19 -25 -4 0 -11 -9 -14 -20 -3 -11 -12 -20 -19 -20 -7 0 -19 -11 -26 -25 -14
-27 -36 -35 -27 -10 4 8 3 17 -2 19 -4 3 -8 0 -8 -7 0 -7 -4 -21 -8 -32 -5
-16 -5 -17 4 -5 9 13 11 13 11 0 0 -24 -16 -44 -24 -31 -4 6 -12 8 -18 5 -6
-4 -14 0 -19 7 -7 11 -9 12 -9 1 0 -8 9 -16 19 -19 19 -5 19 -6 2 -24 -32 -34
-58 -219 -31 -219 5 0 7 8 4 18 -5 14 -4 15 5 2 15 -21 14 -30 -5 -30 -27 0
-47 68 -40 138 5 58 23 107 71 193 18 31 81 90 89 82 3 -4 6 0 6 7 0 14 69 88
83 89 4 1 0 -11 -10 -26z m22 -33 c3 -5 1 -10 -4 -10 -6 0 -11 5 -11 10 0 6 2
10 4 10 3 0 8 -4 11 -10z m1059 -66 c5 -48 -11 -134 -25 -134 -6 0 -7 -6 -3
-12 5 -9 4 -10 -4 -3 -6 6 -7 26 -4 49 4 21 5 70 2 107 -5 66 -4 68 13 51 9
-10 19 -36 21 -58z m-804 41 c-7 -9 -15 -13 -18 -10 -3 2 1 11 8 20 7 9 15 13
18 10 3 -2 -1 -11 -8 -20z m660 -69 c-8 -8 -10 -3 -9 19 1 17 1 35 -1 40 -1 6
-1 17 0 25 1 8 7 -5 12 -29 7 -30 6 -47 -2 -55z m-310 64 c0 -5 -5 -10 -11
-10 -5 0 -7 5 -4 10 3 6 8 10 11 10 2 0 4 -4 4 -10z m582 -41 c-1 -25 -31 -69
-49 -69 -8 0 -2 20 11 32 7 8 17 29 21 47 8 39 18 33 17 -10z m-965 9 c-3 -8
-6 -5 -6 6 -1 11 2 17 5 13 3 -3 4 -12 1 -19z m33 -30 c0 -23 -3 -38 -7 -34
-11 10 -11 76 -1 76 4 0 8 -19 8 -42z m328 0 c-6 -13 -13 -32 -15 -42 -4 -26
-9 -30 -23 -21 -9 6 -9 10 1 16 11 7 11 9 1 9 -10 0 -9 8 5 30 21 36 51 43 31
8z m80 -46 c-11 -13 -11 -15 2 -8 8 4 7 1 -4 -8 -18 -14 -18 -15 6 -21 13 -3
24 -14 25 -23 0 -9 3 -54 6 -99 4 -64 2 -83 -9 -87 -8 -3 -14 -14 -14 -25 0
-11 -5 -23 -12 -27 -8 -5 -9 -2 -5 9 8 21 -6 22 -23 2 -11 -13 -15 -13 -21 -3
-6 9 -9 8 -10 -7 -1 -11 -5 9 -8 45 -4 36 -4 67 -1 70 11 8 29 68 23 74 -3 3
2 8 11 12 9 3 16 12 16 19 0 7 6 15 13 18 6 2 9 8 5 12 -4 4 -17 -3 -29 -16
-24 -28 -23 -23 14 74 18 49 23 54 25 32 2 -14 -3 -34 -10 -43z m447 41 c-4
-10 -8 -23 -9 -30 -1 -7 -5 -16 -9 -19 -4 -4 -7 -15 -7 -24 0 -9 -7 -25 -16
-36 -15 -19 -15 -19 -6 1 5 11 13 37 16 59 4 21 13 44 19 52 16 18 20 17 12
-3z m-1021 -15 c-1 -13 -3 -25 -4 -28 -1 -3 -2 -9 -1 -14 1 -4 -3 -14 -10 -22
-6 -8 -8 -27 -4 -46 5 -25 4 -29 -4 -18 -9 13 -11 12 -11 -6 0 -11 -7 -29 -15
-40 -8 -10 -15 -24 -15 -31 0 -6 -13 -26 -30 -44 -16 -18 -30 -41 -32 -52 -2
-11 -10 -23 -18 -25 -13 -5 -13 -3 -1 11 7 10 10 17 5 17 -5 0 -9 15 -9 34 0
19 4 32 10 29 6 -2 17 13 24 34 8 21 22 49 32 62 11 13 19 30 19 37 0 8 3 14
8 14 4 0 13 15 20 33 8 17 18 42 23 55 5 12 10 22 12 22 2 0 3 -10 1 -22z
m225 -35 c3 -49 4 -138 2 -183 l-2 -35 -14 32 c-18 41 -28 193 -13 210 17 21
25 15 27 -24z m485 -60 c-3 -49 -10 -92 -16 -98 -11 -10 -4 138 8 170 12 29
13 14 8 -72z m400 -32 c0 -45 4 -81 9 -81 5 0 -3 -17 -19 -37 -48 -64 -51 -66
-60 -35 -4 15 -8 32 -9 38 0 6 -8 22 -18 37 -9 14 -17 32 -17 39 0 11 -2 11
-8 0 -5 -7 -16 -10 -25 -6 -14 5 -12 9 10 30 15 13 31 34 37 46 12 23 28 26
35 7 2 -7 -1 -9 -8 -5 -6 4 -9 2 -5 -7 2 -7 11 -14 19 -14 8 0 13 3 10 5 -3 3
0 11 6 18 7 8 7 14 -1 19 -8 5 -3 12 12 20 12 6 25 11 28 9 3 -1 5 -39 4 -83z
m-664 74 c0 -2 -6 -8 -13 -14 -10 -8 -14 -7 -14 2 0 8 6 14 14 14 7 0 13 -1
13 -2z m-356 -37 c-3 -23 -1 -29 5 -18 6 8 8 17 5 21 -2 4 0 10 6 14 5 3 10 0
11 -7 0 -7 2 -29 5 -48 7 -49 -3 -93 -26 -120 -19 -21 -25 -20 -20 5 1 6 2 46
2 90 0 71 3 95 12 95 2 0 2 -15 0 -32z m393 10 c1 -13 -4 -33 -12 -45 -8 -12
-15 -38 -15 -57 0 -19 -5 -38 -11 -41 -14 -9 -16 -6 -22 33 -5 29 -4 32 10 20
14 -11 15 -10 7 7 -14 31 -10 62 11 84 26 26 30 26 32 -1z m330 -10 c-3 -8 -6
-5 -6 6 -1 11 2 17 5 13 3 -3 4 -12 1 -19z m-809 -13 c-3 -3 -9 2 -12 12 -6
14 -5 15 5 6 7 -7 10 -15 7 -18z m-41 -115 c2 -11 -1 -20 -5 -20 -4 0 -8 11
-8 25 0 28 8 24 13 -5z m234 -63 c-1 -27 -5 -55 -8 -61 -4 -6 -8 -18 -8 -26
-3 -39 -7 -47 -32 -75 -43 -49 -69 -81 -53 -67 16 14 30 16 30 3 0 -12 -105
-54 -125 -49 -15 3 -14 6 6 23 18 15 20 16 10 2 -12 -15 -12 -17 3 -11 9 3 16
10 16 16 0 5 4 6 10 3 6 -4 7 1 3 11 -5 13 -3 15 7 9 9 -6 11 -4 6 4 -5 7 0
21 10 32 9 10 14 22 10 26 -6 6 -41 -34 -41 -49 0 -3 -3 -10 -7 -13 -11 -11 2
48 13 61 5 7 9 16 7 20 -1 5 1 30 6 57 8 53 36 68 36 20 0 -20 -3 -24 -9 -14
-7 10 -9 8 -8 -10 0 -13 -4 -33 -8 -43 -6 -14 -5 -17 3 -12 12 7 43 71 56 114
4 12 12 22 17 22 5 0 9 15 9 34 0 19 3 42 6 51 12 31 37 -23 35 -78z m560 66
c-12 -20 -14 -14 -5 12 4 9 9 14 11 11 3 -2 0 -13 -6 -23z m534 17 c3 -5 -1
-10 -10 -10 -9 0 -13 5 -10 10 3 6 8 10 10 10 2 0 7 -4 10 -10z m-365 -30 c0
-5 -2 -10 -4 -10 -3 0 -8 5 -11 10 -3 6 -1 10 4 10 6 0 11 -4 11 -10z m-976
-62 c-4 -24 -18 -65 -31 -93 -14 -27 -26 -58 -28 -67 -2 -9 -10 -29 -18 -44
-14 -27 -15 -27 -21 -6 -4 12 -4 27 0 34 4 7 -4 2 -17 -12 l-24 -24 -5 34 c-5
30 -4 104 2 147 1 7 6 9 11 6 6 -4 8 2 5 13 -3 11 1 25 9 33 12 10 13 8 7 -16
-4 -15 -11 -39 -16 -52 -7 -19 -5 -22 7 -17 20 7 19 -2 -6 -49 -16 -30 -17
-36 -5 -26 12 10 19 11 30 2 12 -10 15 -6 21 19 4 17 13 43 21 58 8 15 14 32
14 39 0 7 6 16 13 20 8 4 16 16 20 26 12 31 17 18 11 -25z m1016 17 c0 -8 5
-15 11 -15 5 0 7 -4 4 -10 -3 -5 -2 -10 4 -10 6 0 13 -11 17 -25 3 -14 9 -25
13 -25 7 0 13 -21 36 -113 2 -10 11 -31 19 -48 8 -16 11 -29 8 -29 -13 0 -57
84 -81 150 -12 36 -29 79 -37 97 -17 37 -17 43 -4 43 6 0 10 -7 10 -15z m-240
-20 c-7 -9 -15 -13 -18 -10 -3 2 1 11 8 20 7 9 15 13 18 10 3 -2 -1 -11 -8
-20z m404 -11 c3 -8 3 -27 -1 -42 -6 -23 -7 -37 -11 -100 -2 -26 -22 -20 -22
6 0 9 -7 30 -15 46 -17 32 -20 49 -5 26 8 -12 10 -11 10 6 0 23 22 74 31 74 4
0 10 -7 13 -16z m-497 -135 c-44 -50 -113 -103 -121 -90 -3 5 1 14 9 21 8 7
15 21 15 31 0 17 34 36 55 30 6 -1 7 1 3 5 -7 6 47 42 65 43 5 1 -7 -17 -26
-40z m-177 -33 c0 -8 6 -16 13 -19 15 -6 -3 -41 -24 -45 -10 -2 -15 10 -16 43
-1 24 -7 55 -14 67 -10 20 -8 20 15 -4 14 -15 26 -34 26 -42z m-202 24 c-10
-31 -28 -50 -28 -30 0 11 29 60 36 60 1 0 -2 -14 -8 -30z m816 4 c3 -8 2 -12
-4 -9 -6 3 -10 10 -10 16 0 14 7 11 14 -7z m-854 -54 c0 -5 -6 -10 -14 -10 -8
0 -16 -7 -20 -15 -3 -8 -12 -15 -21 -15 -8 0 -15 -4 -15 -9 0 -5 -10 -11 -22
-14 -22 -5 -22 -5 2 11 13 9 33 27 44 40 20 23 46 30 46 12z m890 -21 c0 -6
-4 -7 -10 -4 -5 3 -10 11 -10 16 0 6 5 7 10 4 6 -3 10 -11 10 -16z m-667 -42
c7 4 5 -1 -3 -11 -8 -11 -16 -14 -18 -7 -2 6 -9 8 -15 4 -7 -4 -5 1 3 11 8 11
16 14 18 7 2 -6 9 -8 15 -4z m1394 -55 c7 -26 12 -58 12 -72 l0 -25 -11 25
c-11 28 -28 133 -19 125 3 -4 11 -27 18 -53z m-1827 34 c0 -3 -4 -8 -10 -11
-5 -3 -10 -1 -10 4 0 6 5 11 10 11 6 0 10 -2 10 -4z m-210 -20 c0 -3 -4 -8
-10 -11 -5 -3 -10 -1 -10 4 0 6 5 11 10 11 6 0 10 -2 10 -4z m210 -10 c0 -3
-4 -8 -10 -11 -5 -3 -10 -1 -10 4 0 6 5 11 10 11 6 0 10 -2 10 -4z m-195 -16
c3 -5 -1 -10 -10 -10 -9 0 -13 5 -10 10 3 6 8 10 10 10 2 0 7 -4 10 -10z
m2142 -552 c-3 -8 -6 -5 -6 6 -1 11 2 17 5 13 3 -3 4 -12 1 -19z m3 -27 c0 -6
-4 -13 -10 -16 -5 -3 -10 1 -10 9 0 9 5 16 10 16 6 0 10 -4 10 -9z m-90 -171
c0 -5 -5 -10 -11 -10 -5 0 -7 5 -4 10 3 6 8 10 11 10 2 0 4 -4 4 -10z m-545
-260 c38 -1 45 -4 30 -10 -31 -13 -87 -11 -115 5 l-25 14 30 -3 c17 -2 53 -5
80 -6z"/>
<path d="M1870 3446 c0 -9 5 -16 10 -16 6 0 10 4 10 9 0 6 -4 13 -10 16 -5 3
-10 -1 -10 -9z"/>
<path d="M1860 3405 c0 -8 4 -15 8 -15 5 0 9 7 9 15 0 8 -4 15 -9 15 -4 0 -8
-7 -8 -15z"/>
<path d="M1861 3354 c0 -11 3 -14 6 -6 3 7 2 16 -1 19 -3 4 -6 -2 -5 -13z"/>
<path d="M1512 3330 c0 -14 2 -19 5 -12 2 6 2 18 0 25 -3 6 -5 1 -5 -13z"/>
<path d="M1435 3110 c-3 -5 -1 -10 4 -10 6 0 11 5 11 10 0 6 -2 10 -4 10 -3 0
-8 -4 -11 -10z"/>
<path d="M1360 2949 c0 -11 -9 -34 -21 -50 -11 -16 -16 -29 -10 -29 18 0 26 5
23 13 -1 4 4 15 13 23 17 17 21 64 5 64 -5 0 -10 -9 -10 -21z"/>
<path d="M1323 2830 c-1 -11 0 -20 2 -20 2 0 9 9 15 20 8 15 8 20 -3 20 -7 0
-13 -9 -14 -20z"/>
<path d="M1150 2275 c0 -8 2 -15 4 -15 2 0 6 7 10 15 3 8 1 15 -4 15 -6 0 -10
-7 -10 -15z"/>
<path d="M1140 2221 c0 -5 5 -13 10 -16 6 -3 10 -2 10 4 0 5 -4 13 -10 16 -5
3 -10 2 -10 -4z"/>
<path d="M1520 2749 c0 -5 5 -7 10 -4 6 3 10 8 10 11 0 2 -4 4 -10 4 -5 0 -10
-5 -10 -11z"/>
<path d="M1690 2504 c0 -8 5 -12 10 -9 6 3 10 10 10 16 0 5 -4 9 -10 9 -5 0
-10 -7 -10 -16z"/>
<path d="M1850 2173 c5 -2 8 -9 4 -14 -3 -5 0 -9 6 -9 15 0 7 23 -8 26 -7 1
-8 0 -2 -3z"/>
<path d="M1887 2125 c-8 -8 -18 -11 -21 -7 -4 3 -4 -1 0 -11 7 -19 19 -15 34
14 13 23 7 25 -13 4z"/>
<path d="M933 1970 c-24 -30 -28 -40 -15 -40 8 0 46 60 40 64 -1 2 -13 -9 -25
-24z"/>
<path d="M2130 4069 c0 -5 5 -7 10 -4 6 3 10 8 10 11 0 2 -4 4 -10 4 -5 0 -10
-5 -10 -11z"/>
<path d="M2170 4026 c0 -21 24 -36 48 -29 13 3 22 1 22 -6 0 -6 5 -11 10 -11
22 0 8 17 -31 38 -48 26 -49 26 -49 8z"/>
<path d="M1302 3974 c-7 -8 -8 -14 -3 -14 10 0 25 19 20 25 -2 1 -10 -3 -17
-11z"/>
<path d="M1265 3940 c-3 -5 -2 -10 4 -10 5 0 13 5 16 10 3 6 2 10 -4 10 -5 0
-13 -4 -16 -10z"/>
<path d="M1235 3899 c-11 -17 1 -21 15 -4 8 9 8 15 2 15 -6 0 -14 -5 -17 -11z"/>
<path d="M1538 3893 c7 -3 16 -2 19 1 4 3 -2 6 -13 5 -11 0 -14 -3 -6 -6z"/>
<path d="M1739 3889 c-10 -6 -7 -9 14 -9 29 0 35 5 14 13 -8 3 -20 1 -28 -4z"/>
<path d="M1986 3874 c-8 -20 14 -28 31 -12 13 14 12 16 -6 21 -11 3 -22 -1
-25 -9z"/>
<path d="M2158 3848 c2 -16 8 -31 13 -34 5 -3 9 -9 9 -15 0 -5 -9 0 -20 11
-12 12 -18 26 -13 33 4 7 -1 5 -11 -3 -12 -9 -14 -16 -7 -18 9 -3 9 -7 0 -18
-9 -11 -8 -14 4 -14 10 0 14 -6 11 -15 -4 -8 -1 -15 5 -15 16 0 41 -66 57
-150 7 -41 13 -81 14 -87 0 -20 -28 -15 -33 5 -3 9 -5 -4 -6 -29 0 -25 -7 -66
-15 -92 -12 -41 -12 -45 3 -40 9 3 4 -6 -12 -22 -34 -32 -29 -45 7 -18 30 21
62 82 72 138 4 22 12 43 18 47 20 14 35 8 38 -14 2 -12 9 -23 16 -26 9 -3 12
17 13 75 1 43 3 70 6 60 2 -9 8 -15 12 -12 11 6 1 54 -12 62 -6 4 -8 0 -4 -10
3 -10 2 -17 -3 -17 -6 0 -10 6 -10 14 0 18 -47 103 -78 140 -22 28 -46 74 -44
86 0 3 -7 6 -17 6 -13 0 -16 -7 -13 -28z m90 -121 c21 -44 54 -187 43 -187 -3
0 -16 -3 -28 -6 -21 -6 -23 -3 -23 27 0 19 -9 68 -20 109 -24 93 -26 128 -6
111 8 -7 23 -31 34 -54z m-48 -311 c-8 -8 -10 -3 -6 19 7 49 9 51 13 21 3 -16
-1 -34 -7 -40z"/>
<path d="M1505 3850 c-3 -5 -1 -10 4 -10 6 0 11 5 11 10 0 6 -2 10 -4 10 -3 0
-8 -4 -11 -10z"/>
<path d="M1825 3819 c-4 -6 -5 -13 -2 -16 7 -7 27 6 27 18 0 12 -17 12 -25 -2z"/>
<path d="M1480 3799 c0 -5 11 -9 25 -9 14 0 25 2 25 4 0 2 -11 6 -25 8 -14 3
-25 1 -25 -3z"/>
<path d="M1778 3793 c6 -2 18 -2 25 0 6 3 1 5 -13 5 -14 0 -19 -2 -12 -5z"/>
<path d="M1830 3790 c-12 -8 -10 -10 8 -10 13 0 20 4 17 10 -7 12 -6 12 -25 0z"/>
<path d="M1730 3765 c-7 -9 -10 -18 -6 -22 3 -3 6 -1 6 5 0 7 7 12 15 12 8 0
15 5 15 10 0 15 -16 12 -30 -5z"/>
<path d="M2150 3745 c-6 -32 -6 -54 1 -71 12 -34 23 12 11 49 -5 18 -11 28
-12 22z"/>
<path d="M1058 3723 c-9 -10 -26 -37 -38 -60 -12 -24 -27 -40 -33 -36 -6 3 -7
1 -3 -5 9 -14 -37 -95 -48 -85 -4 4 -4 0 0 -10 3 -9 1 -24 -6 -32 -7 -8 -9
-15 -4 -15 4 0 3 -5 -4 -12 -7 -7 -12 -19 -12 -28 0 -9 -7 -25 -16 -36 -8 -10
-12 -12 -8 -4 4 8 4 12 -1 8 -5 -5 -9 -20 -11 -35 -5 -60 -15 -114 -28 -145
-17 -41 -15 -100 3 -106 10 -3 12 0 8 12 -4 9 -2 15 4 13 6 -1 13 10 14 26 2
16 -1 27 -8 27 -7 0 -6 4 3 10 8 5 15 19 16 32 1 28 37 147 61 203 46 109 58
136 95 208 40 78 45 103 16 70z"/>
<path d="M1711 3714 c0 -11 3 -14 6 -6 3 7 2 16 -1 19 -3 4 -6 -2 -5 -13z"/>
<path d="M1664 3649 c-4 -8 1 -9 16 -4 15 5 20 4 16 -4 -5 -7 -1 -9 8 -5 9 3
16 10 16 15 0 13 -48 11 -56 -2z"/>
<path d="M1676 3601 c-4 -7 -5 -15 -2 -18 9 -9 19 4 14 18 -4 11 -6 11 -12 0z"/>
<path d="M3185 3578 c-22 -17 -58 -48 -80 -69 -26 -24 -54 -39 -80 -44 -91
-15 -172 -71 -198 -136 -11 -27 -27 -42 -61 -59 -58 -28 -70 -49 -63 -114 10
-92 17 -107 79 -156 67 -53 268 -130 268 -103 0 5 -26 17 -57 27 -114 36 -204
90 -228 136 -16 31 -16 32 3 26 25 -8 52 2 52 20 0 12 -4 12 -20 2 -26 -16
-51 -2 -65 37 -8 24 -7 30 13 43 22 14 32 40 11 26 -7 -4 -10 -1 -7 7 2 7 22
23 44 34 34 18 55 44 90 112 27 54 236 101 266 60 12 -16 20 -13 103 38 50 30
99 54 109 53 24 -4 27 -17 35 -148 4 -58 12 -116 18 -130 11 -25 46 -69 108
-135 17 -17 41 -46 55 -64 14 -18 45 -44 70 -57 102 -54 171 -84 180 -79 9 6
198 -38 235 -54 80 -35 117 -55 139 -72 14 -11 30 -17 36 -14 5 3 10 2 10 -4
0 -6 15 -17 34 -26 19 -9 42 -25 52 -36 9 -10 22 -19 28 -19 10 0 43 -31 125
-118 17 -19 31 -43 31 -55 0 -18 2 -19 10 -7 11 17 11 17 35 -35 17 -38 30
-77 61 -195 8 -30 21 -71 28 -90 26 -64 29 -75 27 -86 0 -6 6 -24 14 -40 8
-16 15 -54 15 -84 0 -51 1 -53 13 -30 9 17 10 27 3 32 -8 6 -8 8 0 8 17 0 6
93 -27 220 -50 197 -58 223 -74 240 -8 9 -15 22 -15 28 0 7 -3 12 -8 12 -8 0
-42 73 -42 91 0 5 -4 7 -10 4 -5 -3 -10 -2 -10 3 0 12 -130 142 -141 142 -5 0
-9 5 -9 11 0 6 7 9 15 5 27 -10 16 2 -17 19 -171 89 -320 146 -474 179 -70 15
-263 98 -276 120 -4 6 -8 7 -8 1 0 -6 -3 -6 -8 1 -4 5 -24 20 -44 32 -24 15
-41 35 -48 57 -6 19 -16 35 -21 35 -5 0 -9 6 -9 14 0 7 -7 19 -16 26 -29 25
-45 84 -48 180 -2 52 -4 110 -5 129 l-1 34 -45 -6 c-25 -4 -56 -14 -70 -23
-24 -16 -71 -11 -60 6 5 8 -20 70 -28 70 -1 0 -20 -14 -42 -32z m46 -15 c7
-54 3 -64 -36 -87 -33 -19 -44 -21 -62 -11 -21 11 -21 12 24 58 41 43 71 59
74 40z m1038 -784 c35 -28 22 -32 -14 -3 -16 13 -25 24 -20 24 6 -1 21 -10 34
-21z m66 -9 c3 -6 -1 -7 -9 -4 -18 7 -21 14 -7 14 6 0 13 -4 16 -10z m-15 -30
c0 -5 -2 -10 -4 -10 -3 0 -8 5 -11 10 -3 6 -1 10 4 10 6 0 11 -4 11 -10z"/>
<path d="M2095 3591 c-3 -5 -1 -12 5 -16 5 -3 10 1 10 9 0 18 -6 21 -15 7z"/>
<path d="M2019 3568 c-7 -25 -7 -48 1 -48 6 0 10 11 10 25 0 20 -7 35 -11 23z"/>
<path d="M1967 3545 c-4 -8 -2 -17 3 -20 6 -4 10 3 10 14 0 25 -6 27 -13 6z"/>
<path d="M2081 3513 c-7 -18 -17 -33 -23 -33 -5 0 -8 -10 -7 -22 2 -13 -1 -29
-5 -37 -7 -11 -5 -13 8 -8 14 5 16 3 11 -12 -3 -11 -1 -22 5 -26 6 -4 10 4 10
20 0 15 5 35 11 46 5 11 9 39 7 62 l-4 42 -13 -32z"/>
<path d="M1365 3510 c3 -5 13 -10 21 -10 8 0 14 5 14 10 0 6 -9 10 -21 10 -11
0 -17 -4 -14 -10z"/>
<path d="M3286 3442 c-3 -4 -30 -21 -60 -36 -47 -24 -54 -31 -46 -46 9 -17 51
-41 96 -54 19 -6 22 0 34 53 7 33 10 67 7 76 -7 16 -23 20 -31 7z m-22 -97
c-7 -16 -24 -21 -24 -6 0 8 7 13 27 20 1 1 0 -6 -3 -14z"/>
<path d="M1186 3431 c-4 -5 -2 -12 3 -15 5 -4 12 -2 15 3 4 5 2 12 -3 15 -5 4
-12 2 -15 -3z"/>
<path d="M2287 3393 c-13 -12 -7 -42 11 -51 37 -20 57 12 26 42 -17 17 -27 20
-37 9z"/>
<path d="M2043 3372 c-8 -5 -9 -13 -3 -22 11 -17 23 -8 18 14 -2 9 -8 12 -15
8z"/>
<path d="M1156 3305 c4 -8 8 -15 10 -15 2 0 4 7 4 15 0 8 -4 15 -10 15 -5 0
-7 -7 -4 -15z"/>
<path d="M1125 3281 c-3 -5 -1 -12 5 -16 5 -3 10 1 10 9 0 18 -6 21 -15 7z"/>
<path d="M2850 3269 c0 -24 23 -21 28 4 2 10 -3 17 -12 17 -10 0 -16 -9 -16
-21z"/>
<path d="M1201 3252 c-6 -11 -11 -32 -11 -46 0 -14 -5 -28 -10 -31 -18 -11 1
-26 23 -19 12 4 32 7 44 6 29 -2 20 26 -10 30 -25 3 -35 37 -16 49 11 6 11 11
2 20 -8 8 -14 6 -22 -9z"/>
<path d="M1346 3254 c-10 -25 -7 -34 9 -28 17 7 20 30 6 38 -5 3 -12 -1 -15
-10z"/>
<path d="M1411 3254 c0 -11 3 -14 6 -6 3 7 2 16 -1 19 -3 4 -6 -2 -5 -13z"/>
<path d="M1322 3170 c-6 -16 -7 -32 -3 -34 4 -3 13 10 19 29 12 43 -2 47 -16
5z"/>
<path d="M1225 3139 c-12 -18 3 -22 20 -5 14 14 14 16 1 16 -8 0 -18 -5 -21
-11z"/>
<path d="M1298 3113 c7 -3 16 -2 19 1 4 3 -2 6 -13 5 -11 0 -14 -3 -6 -6z"/>
<path d="M1046 3064 c-9 -22 -8 -26 6 -22 13 5 20 38 8 38 -4 0 -11 -7 -14
-16z"/>
<path d="M1151 3044 c0 -11 3 -14 6 -6 3 7 2 16 -1 19 -3 4 -6 -2 -5 -13z"/>
<path d="M2344 3042 c15 -17 30 -22 66 -22 29 0 50 5 53 13 3 8 -10 12 -47 12
-28 0 -60 5 -71 9 -20 9 -20 9 -1 -12z"/>
<path d="M1305 3040 c-3 -5 -1 -10 4 -10 6 0 11 5 11 10 0 6 -2 10 -4 10 -3 0
-8 -4 -11 -10z"/>
<path d="M1035 3020 c-3 -5 1 -10 9 -10 9 0 16 5 16 10 0 6 -4 10 -9 10 -6 0
-13 -4 -16 -10z"/>
<path d="M1019 2998 c-6 -24 -6 -58 1 -58 10 0 30 33 30 49 0 9 -28 17 -31 9z"/>
<path d="M1290 2985 c0 -8 2 -15 4 -15 2 0 6 7 10 15 3 8 1 15 -4 15 -6 0 -10
-7 -10 -15z"/>
<path d="M1010 2900 c0 -16 2 -30 4 -30 2 0 6 14 8 30 3 17 1 30 -4 30 -4 0
-8 -13 -8 -30z"/>
<path d="M1240 2874 c0 -8 5 -12 10 -9 6 4 8 11 5 16 -9 14 -15 11 -15 -7z"/>
<path d="M3076 2833 c3 -26 10 -57 15 -69 4 -12 5 -25 2 -28 -4 -3 2 -6 11 -6
13 0 17 -6 13 -20 -3 -11 -1 -18 3 -15 5 3 7 -7 5 -22 -1 -16 4 -39 12 -52 8
-13 11 -21 6 -18 -5 3 -7 -7 -5 -23 2 -17 8 -28 12 -25 4 3 11 -12 15 -33 4
-20 11 -43 17 -49 6 -7 8 -13 5 -13 -4 0 1 -19 9 -42 17 -49 42 -156 48 -208
2 -19 9 -79 16 -133 17 -138 10 -285 -15 -322 -11 -15 -24 -34 -30 -42 -7 -10
-5 -18 7 -27 16 -12 13 -16 -31 -43 l-49 -31 5 -48 c2 -27 10 -65 18 -84 7
-19 16 -43 19 -53 3 -11 16 -22 29 -25 19 -6 17 -7 -13 -12 -33 -5 -35 -8 -37
-44 -1 -21 5 -52 13 -68 14 -27 20 -30 50 -25 33 6 54 -6 34 -18 -6 -4 -8 -11
-5 -16 4 -5 1 -9 -5 -9 -11 0 -12 -66 -1 -85 3 -5 7 -18 8 -28 2 -10 10 -31
18 -47 8 -16 15 -31 15 -33 0 -2 -22 -2 -50 1 -32 2 -50 0 -50 -7 0 -6 -3 -10
-7 -9 -39 8 -55 -46 -32 -111 12 -33 19 -35 94 -32 l41 2 -4 -39 c-2 -22 0
-42 5 -45 15 -10 142 -11 228 -2 84 8 98 -4 17 -16 l-47 -7 58 1 c45 0 57 4
57 16 0 10 3 12 8 5 8 -13 100 -13 120 0 24 15 103 17 120 4 9 -7 13 -8 10 -3
-4 7 21 11 70 11 42 1 154 4 247 9 94 4 257 7 363 7 176 -1 192 0 192 16 0 15
-2 15 -10 2 -5 -8 -10 -11 -10 -6 0 5 8 18 17 28 10 11 16 32 15 50 -5 58 -11
60 -171 56 l-145 -3 -9 43 c-8 43 -27 49 -27 9 0 -49 -9 -52 -147 -56 -32 0
-58 -7 -67 -17 -14 -14 -16 -14 -16 0 0 12 -5 14 -25 6 -29 -11 -159 -23 -275
-24 l-85 -1 -3 52 c-3 49 -1 53 20 53 319 6 736 29 773 43 49 17 66 40 55 76
-5 18 -5 33 1 36 16 11 10 25 -11 25 -11 0 -20 5 -20 11 0 6 7 8 16 5 11 -4
15 -2 11 8 -3 7 3 23 14 35 11 12 17 26 13 33 -4 6 -3 8 3 5 12 -7 30 10 35
33 2 8 9 19 15 25 7 5 14 25 16 43 2 19 8 37 13 40 9 7 10 11 13 68 1 24 5 33
13 28 8 -5 9 0 6 14 -4 12 -2 22 2 22 5 0 7 26 4 58 -2 32 -6 108 -8 169 -4
111 -16 163 -29 129 -4 -9 -2 -16 4 -16 8 0 10 -31 7 -95 -3 -53 -2 -98 1 -99
8 -5 6 -46 -4 -116 -4 -30 -7 -56 -6 -58 1 -1 -5 -15 -13 -31 -9 -16 -13 -31
-10 -34 3 -2 -4 -24 -14 -48 -11 -24 -25 -59 -31 -78 -17 -54 -71 -118 -165
-198 -14 -12 -39 -24 -56 -28 -16 -4 -30 -10 -30 -14 0 -20 -89 -35 -208 -35
-219 -1 -334 34 -318 98 7 27 8 28 79 26 91 -3 93 -2 80 11 -5 5 -24 11 -41
11 -21 1 -29 5 -25 14 6 16 23 19 23 5 0 -6 10 -8 23 -5 37 9 128 15 195 14
35 -1 70 4 77 10 11 9 19 8 35 -3 14 -9 17 -17 11 -22 -6 -3 -11 0 -11 7 0 10
-2 10 -8 0 -12 -17 -73 -24 -91 -9 -12 10 -14 9 -8 -6 4 -11 3 -16 -3 -12 -6
3 -10 1 -10 -6 0 -7 -6 -4 -14 7 -8 11 -18 15 -23 10 -4 -5 -3 -11 4 -13 7 -2
9 -11 6 -20 -5 -13 0 -14 38 -8 24 5 51 9 59 10 9 0 22 5 29 10 10 5 12 4 7
-3 -11 -19 2 -14 47 15 23 16 49 29 57 31 8 2 16 7 18 12 2 5 9 7 16 4 8 -3
24 15 40 46 23 43 25 54 14 67 -10 13 -10 17 0 20 6 3 10 8 7 13 -3 5 8 22 25
38 16 17 30 39 30 50 0 11 7 25 15 32 12 10 15 10 15 -3 0 -9 -5 -28 -12 -44
-6 -15 -11 -31 -10 -35 1 -5 -2 -8 -8 -8 -5 0 -6 -7 -3 -17 4 -10 2 -14 -5 -9
-6 3 -13 2 -17 -4 -3 -5 1 -10 9 -10 16 0 42 38 32 47 -3 3 3 18 14 33 11 16
20 37 20 47 0 10 5 24 10 29 8 8 7 19 0 39 -9 23 -7 30 10 45 23 20 26 40 8
59 -10 11 -10 13 0 7 25 -15 15 102 -15 165 -16 32 -32 59 -37 59 -4 0 -6 -6
-3 -14 4 -9 0 -12 -13 -9 -22 6 -63 -15 -55 -28 4 -5 1 -8 -5 -7 -10 2 -23
-12 -37 -40 0 -2 -8 -4 -16 -6 -21 -3 -49 -34 -42 -46 3 -6 -4 -10 -18 -10
-29 0 -87 -19 -87 -29 0 -6 -27 -18 -85 -39 -30 -11 -115 -20 -258 -27 -42 -2
-81 -6 -86 -10 -5 -3 -12 -1 -16 5 -3 5 -11 10 -16 10 -6 0 -7 -4 -4 -10 3 -5
-1 -10 -10 -10 -11 0 -15 5 -12 14 3 7 0 19 -6 26 -9 10 -9 11 3 5 12 -7 13
-6 2 6 -11 12 -14 12 -22 -1 -5 -8 -6 -18 -4 -22 3 -4 1 -8 -4 -8 -17 0 -21
27 -8 46 14 19 24 22 99 30 46 5 103 21 82 24 -90 11 -210 -12 -200 -37 3 -11
1 -13 -10 -9 -11 4 -15 -1 -15 -17 0 -33 29 -70 51 -64 10 3 22 0 28 -7 7 -8
-13 -12 -73 -13 -44 -1 -133 -5 -196 -8 -91 -4 -111 -3 -95 7 11 6 26 19 33
29 7 10 19 25 28 33 8 9 12 20 9 26 -4 6 -3 10 2 9 19 -3 33 2 33 12 0 5 -4 7
-10 4 -6 -3 -7 1 -4 10 5 12 9 13 21 3 12 -10 14 -9 12 3 -5 21 23 58 39 52
10 -4 11 -8 2 -13 -24 -15 6 -18 44 -5 37 13 39 12 61 -12 14 -17 26 -23 35
-18 10 6 9 10 -4 17 -9 5 -16 18 -16 29 0 11 4 17 10 14 15 -9 120 25 120 40
0 10 -9 11 -36 5 -20 -5 -47 -4 -60 1 -15 5 -24 5 -24 -1 0 -6 -4 -10 -10 -10
-5 0 -9 6 -7 13 1 8 -10 11 -37 9 -41 -4 -41 0 -5 43 10 11 24 28 32 38 12 18
14 17 37 -5 38 -37 102 -70 112 -60 6 6 -17 24 -59 47 -37 20 -70 39 -72 41
-2 2 10 22 27 43 19 24 28 42 22 46 -14 9 -64 -45 -98 -106 -15 -27 -30 -49
-34 -49 -5 0 -8 -11 -8 -25 0 -18 -4 -23 -15 -19 -11 5 -15 -1 -15 -20 0 -14
-5 -26 -10 -26 -6 0 -46 -36 -88 -80 -74 -76 -112 -98 -112 -65 0 23 -19 18
-30 -7 -7 -19 -9 -19 -9 -5 -1 10 -6 15 -11 12 -6 -3 -13 1 -16 9 -8 21 -24
21 -24 0 0 -9 -6 -14 -12 -12 -24 8 -19 38 11 67 17 17 31 39 31 51 0 11 5 20
10 20 6 0 10 5 10 11 0 5 -6 7 -12 3 -10 -6 -10 -5 -1 8 7 8 10 18 6 21 -3 4
-2 7 3 7 5 0 10 8 10 18 1 9 4 35 9 57 12 65 -8 28 -39 -70 -17 -51 -39 -100
-52 -112 -12 -12 -26 -32 -29 -45 -7 -21 -8 -21 -21 -3 -12 17 -11 22 13 47
26 27 27 32 31 165 3 117 0 156 -21 258 -13 66 -23 122 -21 124 1 2 17 -13 34
-33 43 -48 60 -46 21 3 -17 21 -27 42 -23 46 4 5 1 5 -5 1 -8 -4 -13 -1 -13 9
0 10 -5 14 -12 9 -10 -5 -10 -4 -1 6 9 9 4 23 -18 58 -16 25 -29 52 -29 60 0
8 -8 21 -17 29 -10 8 -12 11 -5 8 11 -6 12 -3 3 13 -6 12 -12 33 -13 47 -1 14
-7 24 -13 21 -7 -2 -9 9 -7 30 3 22 0 34 -7 34 -7 0 -10 4 -7 8 3 5 -1 33 -9
63 -9 30 -17 66 -20 81 -15 80 -49 117 -39 41z m1532 -1030 c2 -37 6 -71 8
-75 3 -4 1 -8 -5 -8 -6 0 -16 19 -23 43 -21 71 -47 69 -46 -5 0 -29 4 -38 17
-37 10 0 11 2 4 6 -14 5 -18 23 -5 23 7 0 52 -73 52 -85 0 -3 -10 4 -22 17
-13 13 -17 17 -10 8 20 -26 14 -33 -20 -26 -18 4 -46 10 -63 14 -16 3 -60 6
-97 6 -36 1 -64 4 -61 9 2 4 18 7 35 7 30 0 64 24 156 113 19 18 44 37 55 44
12 7 22 12 22 13 0 0 2 -30 3 -67z m-254 -78 c-4 -8 -10 -15 -15 -15 -4 0 -6
7 -3 15 4 8 10 15 15 15 4 0 6 -7 3 -15z m41 6 c3 -5 2 -12 -3 -15 -5 -3 -9 1
-9 9 0 17 3 19 12 6z m249 -7 c3 -8 2 -12 -4 -9 -6 3 -10 10 -10 16 0 14 7 11
14 -7z m-1354 -83 c0 -4 8 -8 18 -8 64 1 112 -4 109 -10 -3 -5 -31 -7 -64 -7
-120 3 -115 2 -103 24 9 18 40 18 40 1z m1180 11 c0 -10 -428 -37 -437 -28 -4
3 14 6 38 7 52 1 98 6 159 17 65 12 240 15 240 4z m168 -6 c-7 -8 -15 -12 -17
-11 -5 6 10 25 20 25 5 0 4 -6 -3 -14z m-83 -22 c14 -9 23 -19 20 -23 -2 -4
-5 -23 -7 -43 -2 -30 -5 -34 -24 -30 -16 3 -20 9 -17 23 3 10 11 19 18 19 10
0 11 8 6 28 -5 16 -14 26 -24 26 -9 -1 -14 2 -11 7 7 12 11 11 39 -7z m-43
-45 c-5 -35 -7 -34 -15 8 -5 24 -3 31 7 27 8 -3 11 -16 8 -35z m-1329 5 c-4
-12 -8 -13 -14 -3 -9 15 -2 32 11 24 5 -3 6 -13 3 -21z m1292 -14 c0 -42 -32
-63 -83 -55 -23 4 -32 3 -27 -4 4 -8 -9 -11 -39 -9 -26 0 -49 -2 -53 -5 -3 -4
-15 1 -25 10 -11 10 -19 13 -18 8 5 -21 -1 -24 -26 -15 -16 7 -23 7 -19 0 3
-6 -1 -10 -9 -10 -9 0 -13 6 -10 14 7 17 -17 16 -39 -2 -9 -7 -39 -13 -69 -14
-29 0 -57 -3 -62 -6 -9 -5 -41 -8 -201 -17 -138 -9 -127 -9 -149 1 -14 5 -17
4 -12 -4 4 -7 2 -12 -3 -12 -6 0 -11 6 -12 13 0 10 -2 10 -6 0 -2 -7 -16 -13
-29 -13 -14 0 -23 4 -19 9 3 6 -6 6 -25 1 -16 -5 -87 -12 -158 -16 -70 -3
-130 -8 -133 -10 -10 -5 -27 44 -34 96 l-7 45 49 2 c477 16 546 15 555 -1 5
-9 14 -16 20 -16 7 0 6 5 -2 15 -11 13 -4 15 56 15 117 1 428 11 432 15 2 2
38 3 80 2 l77 -2 0 -35z m75 -85 c0 -8 -5 -17 -12 -21 -7 -4 -8 -3 -4 4 10 16
-5 15 -29 -2 -15 -10 -39 -11 -95 -6 -41 4 -64 8 -50 10 67 7 88 9 120 16 19
4 38 7 43 6 4 -1 7 3 7 9 0 5 5 7 10 4 6 -3 10 -12 10 -20z m-440 -25 c0 -5
-5 -10 -11 -10 -5 0 -7 5 -4 10 3 6 8 10 11 10 2 0 4 -4 4 -10z m203 3 c-7 -2
-19 -2 -25 0 -7 3 -2 5 12 5 14 0 19 -2 13 -5z m-275 -10 c-10 -2 -26 -2 -35
0 -10 3 -2 5 17 5 19 0 27 -2 18 -5z m377 -193 c-3 -5 -13 -10 -21 -10 -8 0
-14 5 -14 10 0 6 9 10 21 10 11 0 17 -4 14 -10z m-602 -49 c20 -1 37 -5 37
-10 0 -5 -28 -8 -62 -8 -35 0 -103 -3 -153 -7 -49 -5 -128 -10 -174 -12 -46
-2 -89 -8 -94 -13 -10 -10 129 -8 298 4 148 11 185 10 185 -5 0 -6 -33 -10
-79 -10 -48 0 -83 -4 -87 -11 -4 -7 -9 -7 -13 -1 -6 9 -83 3 -166 -12 -16 -3
-54 -6 -82 -7 -29 -1 -53 -6 -53 -11 0 -4 3 -8 8 -9 27 -3 104 0 144 5 26 4
74 8 106 10 32 1 63 5 68 8 16 9 166 0 177 -11 6 -6 17 -11 24 -11 7 0 13 -4
13 -10 0 -5 -18 -10 -41 -10 -24 0 -38 4 -34 10 4 6 -10 10 -34 10 -23 0 -41
-4 -41 -9 0 -4 -12 -8 -27 -9 -93 -2 -179 -8 -188 -13 -5 -4 -35 -7 -65 -8
-30 0 -67 -4 -82 -7 -41 -8 -53 12 -54 84 0 34 2 63 5 63 3 1 82 3 174 4 92 2
170 5 172 7 3 2 21 3 42 2 21 -1 55 -3 76 -3z m777 -73 c0 -5 -11 -8 -24 -8
-14 0 -28 -4 -31 -10 -3 -5 -16 -10 -28 -10 -19 0 -17 4 18 38 39 37 40 38 52
18 7 -12 12 -24 13 -28z m-1210 -172 c-5 -7 -7 -27 -4 -44 5 -27 3 -30 -22
-35 -44 -8 -152 -3 -163 8 -5 6 -12 26 -15 45 -5 35 -5 36 27 32 18 -1 64 1
102 6 77 9 91 7 75 -12z m-14 -134 c1 -7 0 -8 -3 -2 -2 5 -9 10 -14 10 -6 0
-7 -4 -4 -10 3 -5 -1 -10 -9 -10 -9 0 -16 7 -16 16 0 19 42 16 46 -4z m1051
12 c-3 -3 -12 -4 -19 -1 -8 3 -5 6 6 6 11 1 17 -2 13 -5z"/>
<path d="M3872 1568 c2 -6 10 -14 16 -16 7 -2 10 2 6 12 -7 18 -28 22 -22 4z"/>
<path d="M3778 1558 c6 -7 12 -26 14 -43 2 -25 8 -31 31 -33 19 -2 33 3 42 14
19 27 7 43 -36 50 -21 4 -39 10 -39 15 0 5 -5 9 -11 9 -8 0 -8 -4 -1 -12z"/>
<path d="M3460 1528 c0 -40 15 -58 48 -58 29 0 19 20 -11 21 -21 0 -21 1 3 11
25 11 25 11 3 15 -28 5 -30 20 -3 19 33 -2 27 19 -7 22 -31 3 -33 2 -33 -30z"/>
<path d="M3590 1560 c-1 -3 -3 -14 -5 -25 -2 -11 -9 -21 -15 -23 -22 -8 3 -22
38 -22 31 1 34 3 22 13 -9 7 -21 23 -27 37 -6 14 -12 23 -13 20z"/>
<path d="M3667 1553 c-24 -23 7 -74 48 -78 20 -3 23 1 21 27 -3 40 -48 73 -69
51z m43 -33 c0 -5 -7 -10 -16 -10 -8 0 -12 5 -9 10 3 6 10 10 16 10 5 0 9 -4
9 -10z"/>
<path d="M3276 1515 c-7 -27 -1 -45 15 -45 5 0 9 12 9 27 0 25 0 26 20 8 11
-10 23 -16 26 -13 5 6 -44 48 -56 48 -4 0 -11 -11 -14 -25z"/>
<path d="M3380 1515 c0 -8 -5 -15 -11 -15 -5 0 -7 -4 -4 -10 3 -5 19 -10 35
-10 15 0 31 -6 33 -12 4 -10 6 -10 6 -1 1 7 -8 17 -19 23 -11 6 -20 17 -20 25
0 8 -4 15 -10 15 -5 0 -10 -7 -10 -15z"/>
<path d="M4048 1503 c6 -2 18 -2 25 0 6 3 1 5 -13 5 -14 0 -19 -2 -12 -5z"/>
<path d="M3870 1496 c0 -10 28 -13 41 -5 10 6 7 9 -13 9 -16 0 -28 -2 -28 -4z"/>
<path d="M1000 2844 c0 -8 5 -12 10 -9 6 3 10 10 10 16 0 5 -4 9 -10 9 -5 0
-10 -7 -10 -16z"/>
<path d="M1011 2698 c-7 -19 -4 -58 4 -58 2 0 5 18 7 40 4 45 1 50 -11 18z"/>
<path d="M2118 2711 c7 -4 17 -23 22 -42 4 -19 21 -83 38 -144 16 -60 39 -153
51 -205 30 -130 30 -130 47 -130 18 0 18 27 0 82 -14 45 -50 162 -84 283 -12
39 -24 86 -27 105 -9 42 -22 60 -44 60 -12 0 -13 -2 -3 -9z"/>
<path d="M730 2430 c0 -5 5 -10 10 -10 6 0 10 5 10 10 0 6 -4 10 -10 10 -5 0
-10 -4 -10 -10z"/>
<path d="M913 2345 c0 -8 4 -15 9 -15 4 0 8 4 8 9 0 6 -4 12 -8 15 -5 3 -9 -1
-9 -9z"/>
<path d="M3404 2238 l5 -81 -31 29 -32 29 32 -41 c18 -23 32 -50 32 -60 1 -18
1 -18 11 -1 7 12 7 22 1 30 -5 7 -7 20 -3 29 9 25 1 148 -10 148 -6 0 -8 -33
-5 -82z"/>
<path d="M4047 2272 c-10 -10 -17 -25 -17 -32 0 -7 -3 -10 -6 -7 -7 7 -58 -68
-68 -100 -4 -11 -15 -28 -26 -38 -11 -10 -20 -31 -20 -47 0 -15 -4 -28 -9 -28
-9 0 -6 -64 4 -109 4 -13 2 -27 -3 -30 -5 -3 3 -16 18 -28 l27 -22 -5 24 c-2
14 -9 25 -14 25 -5 0 -8 8 -6 18 1 9 -1 23 -6 31 -6 9 -5 12 1 8 7 -4 11 8 11
33 1 43 10 82 22 90 3 3 16 25 28 50 12 25 44 71 72 103 27 32 50 63 50 68 0
16 -36 10 -53 -9z"/>
<path d="M826 2151 c1 -14 2 -30 3 -34 1 -5 6 -5 11 -2 7 4 7 13 0 24 -6 12
-6 21 1 28 6 6 5 10 -4 10 -9 0 -13 -10 -11 -26z"/>
<path d="M2248 2173 c7 -3 16 -2 19 1 4 3 -2 6 -13 5 -11 0 -14 -3 -6 -6z"/>
<path d="M1477 1893 c-4 -3 -7 -11 -7 -17 0 -6 5 -5 12 2 6 6 9 14 7 17 -3 3
-9 2 -12 -2z"/>
<path d="M760 1729 c0 -5 5 -7 10 -4 6 3 10 8 10 11 0 2 -4 4 -10 4 -5 0 -10
-5 -10 -11z"/>
<path d="M2010 1719 c0 -5 5 -7 10 -4 6 3 10 8 10 11 0 2 -4 4 -10 4 -5 0 -10
-5 -10 -11z"/>
<path d="M2712 1650 c0 -14 2 -19 5 -12 2 6 2 18 0 25 -3 6 -5 1 -5 -13z"/>
<path d="M586 1645 c-9 -26 -7 -32 5 -12 6 10 9 21 6 23 -2 3 -7 -2 -11 -11z"/>
<path d="M2035 1620 c3 -5 8 -10 11 -10 2 0 4 5 4 10 0 6 -5 10 -11 10 -5 0
-7 -4 -4 -10z"/>
<path d="M2721 1604 c0 -11 3 -14 6 -6 3 7 2 16 -1 19 -3 4 -6 -2 -5 -13z"/>
<path d="M2025 1580 c3 -14 8 -42 11 -63 4 -20 11 -40 16 -43 12 -8 2 44 -18
96 -8 19 -12 24 -9 10z"/>
<path d="M2060 1566 c12 -25 16 -53 14 -100 -2 -40 1 -66 7 -66 6 0 10 12 8
28 -1 15 1 35 6 44 9 23 -24 128 -40 128 -9 0 -8 -9 5 -34z"/>
<path d="M2116 1547 c3 -10 9 -15 12 -12 3 3 0 11 -7 18 -10 9 -11 8 -5 -6z"/>
<path d="M2140 1513 c0 -16 22 -32 36 -26 8 3 14 13 14 22 0 13 -2 14 -9 2 -8
-12 -12 -12 -25 -2 -9 8 -16 9 -16 4z"/>
<path d="M1310 1454 c0 -18 34 -73 85 -139 9 -11 38 -49 65 -84 28 -35 50 -67
50 -70 0 -4 8 -16 18 -27 10 -10 33 -41 52 -69 19 -27 37 -51 42 -53 4 -2 8
-7 8 -12 0 -9 78 -90 87 -90 3 0 -6 15 -20 33 -14 19 -65 90 -114 158 -48 68
-122 167 -164 219 -42 52 -84 109 -92 125 -14 25 -16 27 -17 9z"/>
<path d="M4520 1373 c0 -4 5 -15 10 -23 8 -13 10 -13 10 2 0 9 -4 20 -10 23
-5 3 -10 3 -10 -2z"/>
<path d="M4643 1187 c1 -38 6 -53 14 -50 14 6 15 73 1 73 -5 0 -7 4 -3 9 3 5
1 12 -4 16 -6 3 -9 -16 -8 -48z"/>
<path d="M4135 1210 c-3 -5 -3 -14 0 -20 3 -5 -1 -10 -10 -10 -11 0 -15 5 -12
14 4 10 1 13 -9 9 -25 -9 -15 -31 16 -35 39 -6 54 4 45 31 -7 22 -20 27 -30
11z"/>
<path d="M4056 1194 c-8 -21 -4 -25 14 -14 11 7 12 12 4 20 -8 8 -13 7 -18 -6z"/>
<path d="M1340 1173 c0 -33 23 -82 40 -86 23 -6 27 8 6 16 -8 3 -18 22 -22 41
-3 20 -10 36 -15 36 -5 0 -9 -3 -9 -7z"/>
<path d="M3815 970 c3 -5 13 -10 21 -10 8 0 12 5 9 10 -3 6 -13 10 -21 10 -8
0 -12 -4 -9 -10z"/>
<path d="M3910 971 c0 -5 7 -12 16 -15 24 -9 28 -7 14 9 -14 17 -30 20 -30 6z"/>
<path d="M3875 960 c3 -5 11 -10 16 -10 6 0 7 5 4 10 -3 6 -11 10 -16 10 -6 0
-7 -4 -4 -10z"/>
<path d="M821 878 c-1 -10 -6 -18 -12 -18 -8 0 -8 -4 -1 -12 5 -7 12 -24 15
-38 4 -21 4 -20 6 8 0 18 6 32 14 32 8 0 9 3 1 8 -6 4 -14 14 -17 22 -4 12 -6
11 -6 -2z"/>
<path d="M750 865 c-9 -10 -9 -15 -1 -15 6 0 11 -13 11 -30 0 -16 5 -30 11
-30 7 0 10 12 7 30 -2 16 0 31 5 33 5 1 3 8 -6 15 -11 10 -17 9 -27 -3z"/>
<path d="M500 855 c-11 -13 -15 -13 -21 -3 -6 8 -9 -3 -9 -29 0 -24 5 -43 10
-43 6 0 10 10 10 22 0 12 7 30 17 40 9 10 14 20 11 23 -3 3 -11 -2 -18 -10z"/>
<path d="M653 835 c0 -22 2 -30 4 -17 2 12 2 30 0 40 -3 9 -5 -1 -4 -23z"/>
<path d="M691 848 c-12 -32 -3 -48 25 -46 27 3 29 7 12 43 -14 31 -26 32 -37
3z m16 -20 c-3 -8 -6 -5 -6 6 -1 11 2 17 5 13 3 -3 4 -12 1 -19z"/>
<path d="M981 853 c-8 -14 -12 -15 -25 -4 -13 11 -17 11 -22 -2 -16 -44 18
-77 63 -61 31 10 42 46 23 70 -16 19 -27 18 -39 -3z m31 -15 c9 -24 -4 -38
-33 -38 -19 0 -29 5 -29 15 0 9 6 12 15 9 8 -4 17 1 21 10 7 19 20 21 26 4z"/>
<path d="M530 839 c-7 -11 -9 -27 -6 -35 8 -20 46 -18 46 3 0 15 2 14 15 -3
14 -18 14 -17 15 16 l2 35 13 -30 14 -30 1 28 c0 30 -27 49 -40 27 -5 -8 -9
-9 -14 -1 -11 18 -34 13 -46 -10z m21 -32 c-8 -8 -11 -5 -11 9 0 27 14 41 18
19 2 -9 -1 -22 -7 -28z"/>
<path d="M864 846 c-16 -41 17 -72 36 -36 9 16 8 25 -1 36 -15 18 -28 18 -35
0z m26 -21 c0 -8 -4 -15 -10 -15 -5 0 -10 7 -10 15 0 8 5 15 10 15 6 0 10 -7
10 -15z"/>
</g>
</svg>
